<svg id="svg" version="1.1" xmlns="http://www.w3.org/2000/svg" xmlns:xlink="http://www.w3.org/1999/xlink" width="400" height="400" viewBox="0, 0, 400,400"><g id="svgg"><path id="path0" d="M205.846 25.087 C 205.688 25.245,204.533 25.492,203.279 25.637 C 200.322 25.977,194.374 27.169,193.587 27.579 C 193.250 27.754,192.350 28.032,191.587 28.195 C 190.824 28.359,190.020 28.622,189.800 28.780 C 189.580 28.938,188.140 29.481,186.600 29.988 C 183.755 30.923,178.941 33.028,176.400 34.449 C 175.630 34.879,174.280 35.593,173.400 36.035 C 171.683 36.896,170.957 37.342,167.334 39.754 C 166.050 40.609,164.010 41.953,162.800 42.741 C 161.590 43.529,160.420 44.373,160.200 44.616 C 159.980 44.859,159.499 45.225,159.132 45.429 C 156.832 46.706,143.368 59.590,141.050 62.733 C 137.971 66.906,136.794 66.328,136.814 60.651 C 136.830 56.271,137.444 53.001,138.764 50.275 C 140.421 46.851,139.847 46.434,136.997 48.994 C 135.899 49.980,134.891 50.790,134.758 50.794 C 134.335 50.805,132.627 52.557,131.829 53.800 C 131.404 54.460,130.126 55.990,128.989 57.200 C 126.870 59.454,122.800 65.037,122.800 65.689 C 122.800 65.890,122.364 66.626,121.832 67.327 C 121.027 68.386,119.702 71.017,116.757 77.400 C 116.215 78.576,114.032 84.718,113.417 86.800 C 113.125 87.790,112.495 89.860,112.018 91.400 C 111.541 92.940,110.994 95.100,110.802 96.200 C 110.611 97.300,110.172 99.550,109.827 101.200 C 109.483 102.850,109.201 104.749,109.200 105.420 C 109.200 106.091,109.034 106.811,108.831 107.020 C 108.441 107.422,108.297 108.983,107.561 120.800 C 107.022 129.454,107.022 129.183,107.576 137.200 C 108.507 150.680,109.830 156.086,113.792 162.600 C 114.327 163.480,114.773 164.655,114.783 165.211 C 114.792 165.767,115.041 166.577,115.335 167.011 C 115.630 167.445,116.280 169.150,116.781 170.800 C 117.282 172.450,117.930 174.520,118.222 175.400 C 118.513 176.280,118.875 178.080,119.026 179.400 C 119.177 180.720,119.463 182.112,119.661 182.494 C 120.033 183.210,120.555 185.414,121.234 189.139 C 121.690 191.643,123.113 194.650,123.605 194.148 C 123.792 193.956,124.024 192.180,124.119 190.200 C 124.392 184.557,126.084 174.535,127.097 172.560 C 127.312 172.142,127.605 171.170,127.749 170.400 C 128.289 167.511,130.890 163.247,133.835 160.424 C 139.544 154.952,140.730 149.501,137.328 144.373 C 135.081 140.986,134.830 140.568,133.823 138.525 C 133.260 137.383,132.800 136.179,132.800 135.848 C 132.800 135.518,132.647 135.153,132.460 135.037 C 130.624 133.903,131.170 123.685,133.300 119.318 C 136.686 112.373,149.235 103.498,159.200 101.000 C 159.750 100.863,160.560 100.597,161.000 100.410 C 161.704 100.111,165.444 98.987,169.000 98.006 C 169.660 97.823,171.190 97.464,172.400 97.207 C 173.610 96.949,175.140 96.583,175.800 96.392 C 176.460 96.202,178.350 95.922,180.000 95.771 C 181.650 95.620,183.341 95.319,183.758 95.103 C 187.012 93.415,215.712 93.345,221.200 95.012 C 222.190 95.313,224.350 95.729,226.000 95.937 C 229.714 96.405,233.261 97.231,237.312 98.571 C 239.024 99.137,240.617 99.600,240.852 99.600 C 241.087 99.600,241.846 99.854,242.540 100.166 C 243.233 100.477,244.520 100.952,245.400 101.222 C 246.280 101.492,248.170 102.245,249.600 102.895 C 251.030 103.546,252.830 104.354,253.600 104.692 C 260.973 107.923,268.894 114.819,272.101 120.800 C 276.182 128.409,275.710 134.753,270.211 146.200 C 267.664 151.500,266.567 156.555,267.529 158.552 C 267.754 159.018,268.044 159.889,268.173 160.486 C 268.424 161.644,270.381 164.754,271.381 165.584 C 274.327 168.029,276.530 182.653,275.434 192.500 C 275.025 196.184,275.408 196.455,277.693 194.100 C 279.539 192.197,280.675 189.077,281.005 185.000 C 281.148 183.240,281.509 181.080,281.808 180.200 C 282.107 179.320,282.463 177.749,282.599 176.709 C 282.735 175.669,283.016 174.714,283.223 174.586 C 283.430 174.458,283.600 173.980,283.600 173.524 C 283.600 172.623,284.704 170.627,286.453 168.366 C 288.552 165.653,291.580 159.732,293.085 155.400 C 294.775 150.534,295.166 123.327,293.589 120.379 C 293.375 119.979,293.200 119.108,293.200 118.442 C 293.200 117.776,292.840 115.687,292.400 113.800 C 291.960 111.913,291.600 109.924,291.600 109.379 C 291.600 108.835,291.422 108.077,291.205 107.695 C 290.773 106.937,289.645 101.646,289.316 98.842 C 289.203 97.875,289.294 96.435,289.519 95.642 C 289.744 94.849,290.106 93.300,290.323 92.200 C 290.835 89.613,291.867 86.875,292.612 86.131 C 292.935 85.807,293.200 85.406,293.200 85.239 C 293.200 84.815,297.980 80.000,298.401 80.000 C 298.589 80.000,298.981 79.769,299.271 79.486 C 299.562 79.204,300.648 78.481,301.683 77.879 L 303.567 76.786 301.883 75.255 C 300.958 74.413,298.881 72.931,297.269 71.962 C 295.657 70.993,293.677 69.803,292.869 69.317 C 292.061 68.832,291.157 68.427,290.860 68.417 C 290.564 68.408,289.754 68.145,289.060 67.833 C 285.492 66.227,283.825 65.600,283.123 65.600 C 282.696 65.600,281.954 65.377,281.474 65.105 C 280.209 64.388,272.274 62.940,266.600 62.392 C 257.250 61.487,256.576 61.158,259.758 59.046 C 264.010 56.223,276.411 50.400,278.169 50.400 C 279.534 50.400,280.935 48.644,280.133 47.938 C 278.158 46.197,269.386 42.439,265.200 41.540 C 264.210 41.327,263.040 40.997,262.600 40.806 C 262.160 40.615,260.658 40.344,259.263 40.205 C 257.867 40.066,256.247 39.755,255.663 39.514 C 252.441 38.188,229.695 38.046,227.678 39.340 C 227.390 39.524,225.500 39.913,223.478 40.203 C 216.217 41.246,209.623 42.883,205.686 44.620 C 199.757 47.237,203.051 37.782,210.814 29.904 C 213.661 27.014,214.915 25.475,214.644 25.204 C 214.188 24.748,206.290 24.643,205.846 25.087 M267.852 221.876 C 266.633 225.015,260.000 238.459,258.753 240.320 C 258.119 241.266,257.600 242.124,257.600 242.226 C 257.600 242.496,254.690 246.905,254.100 247.529 C 253.825 247.819,253.600 248.211,253.600 248.400 C 253.600 248.589,253.323 249.020,252.984 249.359 C 252.464 249.879,252.351 251.783,252.252 261.687 C 252.180 269.004,251.953 274.226,251.648 275.600 C 251.380 276.810,251.001 278.700,250.807 279.800 C 250.149 283.523,248.920 287.606,247.544 290.644 C 247.135 291.548,246.800 292.478,246.800 292.711 C 246.800 292.944,246.552 293.645,246.249 294.268 C 245.946 294.890,245.361 296.107,244.949 296.971 C 244.537 297.834,244.018 298.734,243.795 298.971 C 243.573 299.207,243.171 299.850,242.902 300.400 C 242.178 301.884,238.892 306.337,237.561 307.638 C 236.923 308.262,236.400 308.932,236.400 309.126 C 236.400 309.468,233.171 312.598,230.376 314.966 C 227.553 317.357,222.101 321.600,221.851 321.600 C 221.708 321.600,220.739 322.195,219.696 322.922 C 216.833 324.919,211.386 328.085,207.800 329.837 C 206.040 330.697,204.510 331.500,204.400 331.622 C 204.290 331.744,203.423 332.242,202.474 332.729 C 200.609 333.686,200.940 333.737,197.600 331.969 C 196.000 331.121,190.576 327.856,190.400 327.635 C 190.290 327.496,188.985 326.600,187.500 325.644 C 186.015 324.688,184.800 323.759,184.800 323.580 C 184.800 323.401,184.481 323.153,184.091 323.029 C 183.702 322.905,182.835 322.308,182.166 321.702 C 181.497 321.096,180.064 319.880,178.983 319.000 C 174.757 315.562,168.549 308.813,165.695 304.553 C 163.693 301.565,162.473 299.514,161.675 297.794 C 161.166 296.697,160.559 295.452,160.326 295.027 C 160.093 294.602,159.757 293.792,159.578 293.227 C 159.400 292.662,158.784 290.940,158.210 289.400 C 157.215 286.729,156.794 284.928,156.015 280.000 C 155.824 278.790,155.652 274.138,155.634 269.662 C 155.597 260.744,155.538 260.481,152.963 257.600 C 151.754 256.247,149.424 253.153,146.300 248.752 C 145.475 247.589,144.800 246.405,144.800 246.119 C 144.800 245.834,144.616 245.600,144.390 245.600 C 144.165 245.600,143.802 245.195,143.584 244.700 C 143.366 244.205,142.830 243.260,142.393 242.600 C 141.956 241.940,141.323 240.860,140.986 240.200 C 140.650 239.540,140.037 238.460,139.624 237.800 C 138.495 235.995,135.593 230.252,135.597 229.831 C 135.599 229.629,135.361 229.179,135.068 228.831 C 134.775 228.484,134.220 227.345,133.835 226.300 C 133.449 225.255,133.074 224.400,133.001 224.400 C 132.177 224.400,118.800 238.050,118.800 238.891 C 118.800 239.108,118.270 239.953,117.623 240.771 C 116.173 242.602,112.400 249.086,112.400 249.747 C 112.400 250.013,112.040 250.937,111.600 251.800 C 111.160 252.663,110.800 253.581,110.800 253.839 C 110.800 254.097,110.531 254.824,110.202 255.454 C 109.874 256.084,109.604 256.924,109.602 257.320 C 109.601 257.716,109.342 258.539,109.027 259.148 C 108.711 259.758,108.338 261.864,108.197 263.829 C 108.057 265.793,107.764 267.768,107.547 268.217 C 106.714 269.946,107.974 287.857,109.036 289.373 C 109.346 289.816,109.600 291.116,109.600 292.264 L 109.600 294.349 103.573 297.375 C 100.258 299.039,97.288 300.400,96.973 300.400 C 96.658 300.400,96.400 300.575,96.400 300.789 C 96.400 301.003,95.005 301.993,93.300 302.989 C 91.595 303.985,89.210 305.525,88.000 306.411 C 86.790 307.298,85.485 308.129,85.100 308.258 C 84.715 308.387,84.400 308.635,84.400 308.809 C 84.400 308.982,83.545 309.621,82.500 310.229 C 78.129 312.772,68.412 320.996,68.393 322.168 C 68.389 322.405,67.929 323.034,67.370 323.564 C 66.812 324.094,66.090 325.039,65.767 325.664 C 65.444 326.289,65.004 326.800,64.790 326.800 C 64.575 326.800,64.400 327.011,64.400 327.269 C 64.400 327.526,64.138 328.027,63.817 328.381 C 62.882 329.414,58.800 337.598,58.800 338.439 C 58.800 338.861,58.350 339.597,57.800 340.075 C 57.250 340.553,56.800 341.194,56.800 341.499 C 56.800 341.887,56.530 341.973,55.900 341.786 C 55.010 341.520,55.009 341.525,55.800 342.188 C 56.240 342.557,56.375 342.745,56.100 342.606 C 55.825 342.467,55.600 342.543,55.600 342.776 C 55.600 343.009,55.870 343.200,56.200 343.200 C 56.530 343.200,56.800 343.470,56.800 343.800 C 56.800 344.130,56.991 344.400,57.224 344.400 C 57.457 344.400,57.518 344.175,57.359 343.900 C 57.201 343.625,57.550 343.836,58.135 344.370 C 59.328 345.456,59.580 345.996,58.500 345.149 C 57.866 344.651,57.851 344.666,58.349 345.300 C 58.651 345.685,59.326 346.000,59.849 346.000 C 60.372 346.000,60.800 346.187,60.800 346.416 C 60.800 346.934,63.893 350.000,64.416 350.000 C 64.627 350.000,64.800 350.171,64.800 350.379 C 64.800 351.118,66.755 352.875,67.241 352.574 C 67.547 352.385,67.619 352.445,67.438 352.738 C 67.281 352.992,67.354 353.200,67.600 353.200 C 67.846 353.200,67.922 353.403,67.768 353.652 C 67.602 353.920,67.702 354.033,68.014 353.929 C 68.303 353.832,69.003 354.228,69.570 354.808 C 70.136 355.388,70.926 355.983,71.325 356.129 C 71.724 356.275,71.933 356.585,71.789 356.818 C 71.641 357.057,72.066 357.446,72.763 357.709 C 73.444 357.965,74.000 358.436,74.000 358.754 C 74.000 359.073,74.114 359.220,74.253 359.081 C 74.662 358.672,76.048 359.599,75.749 360.082 C 75.588 360.342,75.659 360.411,75.921 360.249 C 76.169 360.096,77.037 360.688,77.883 361.586 C 78.717 362.473,79.715 363.199,80.100 363.199 C 80.485 363.200,80.800 363.470,80.800 363.800 C 80.800 364.130,80.991 364.400,81.224 364.400 C 81.457 364.400,81.523 364.175,81.371 363.900 C 81.219 363.625,81.678 364.030,82.392 364.800 C 83.105 365.570,83.465 365.840,83.192 365.400 C 82.919 364.960,83.259 365.188,83.948 365.906 C 84.637 366.625,85.206 367.075,85.213 366.906 C 85.221 366.738,85.566 367.007,85.980 367.503 C 86.395 368.000,87.286 368.517,87.960 368.652 C 88.635 368.787,89.089 369.057,88.968 369.252 C 88.748 369.608,89.411 369.984,90.557 370.153 C 90.898 370.203,91.317 370.398,91.488 370.586 C 91.660 370.774,91.530 370.783,91.200 370.605 C 90.787 370.383,90.725 370.414,91.000 370.702 C 91.220 370.933,91.760 371.196,92.200 371.285 C 92.640 371.374,92.951 371.675,92.890 371.953 C 92.830 372.232,92.965 372.345,93.190 372.206 C 93.416 372.067,93.600 372.143,93.600 372.376 C 93.600 372.609,93.941 372.800,94.357 372.800 C 94.774 372.800,95.218 373.070,95.345 373.400 C 95.471 373.730,95.829 374.000,96.138 374.000 C 96.448 374.000,96.926 374.270,97.200 374.600 C 97.474 374.930,97.996 375.200,98.360 375.200 C 98.724 375.200,99.343 375.575,99.736 376.033 C 100.128 376.492,100.705 376.768,101.019 376.648 C 101.332 376.528,101.764 376.760,101.981 377.165 C 102.200 377.574,102.813 377.900,103.364 377.900 C 103.949 377.900,104.813 378.392,105.477 379.104 C 106.095 379.766,107.050 380.443,107.600 380.608 C 108.150 380.773,108.955 381.154,109.389 381.454 C 109.823 381.754,110.656 382.000,111.240 382.000 C 111.824 382.000,112.526 382.270,112.800 382.600 C 113.074 382.930,113.627 383.200,114.029 383.200 C 114.431 383.200,114.916 383.479,115.107 383.819 C 115.298 384.160,115.940 384.491,116.535 384.554 C 117.130 384.618,117.838 384.960,118.108 385.316 C 118.401 385.701,119.328 386.010,120.400 386.081 C 121.579 386.159,122.166 386.372,122.100 386.700 C 122.045 386.975,122.338 387.200,122.751 387.200 C 123.164 387.200,123.737 387.483,124.023 387.828 C 124.310 388.173,124.872 388.370,125.272 388.265 C 125.672 388.161,126.000 388.257,126.000 388.480 C 126.000 388.703,126.287 388.776,126.637 388.641 C 127.054 388.481,127.342 388.656,127.471 389.148 C 127.625 389.739,128.062 389.908,129.510 389.937 C 130.720 389.961,131.471 390.185,131.697 390.587 C 131.944 391.029,132.695 391.200,134.393 391.200 C 136.395 391.200,136.784 391.319,137.000 392.000 C 137.140 392.440,137.580 392.800,137.978 392.800 C 138.376 392.800,138.932 393.077,139.212 393.415 C 139.493 393.753,140.010 394.002,140.361 393.969 C 142.664 393.749,144.800 394.045,144.800 394.582 C 144.800 395.022,145.459 395.192,147.500 395.282 C 149.580 395.373,150.200 395.538,150.201 396.000 C 150.201 396.421,150.637 396.604,151.656 396.614 C 152.456 396.621,153.393 396.862,153.738 397.148 C 154.083 397.435,154.581 397.536,154.844 397.373 C 155.133 397.194,155.219 397.246,155.061 397.502 C 154.885 397.787,155.750 397.936,157.678 397.954 C 159.667 397.973,160.652 398.150,160.862 398.525 C 161.030 398.824,161.759 399.091,162.483 399.119 L 163.800 399.168 163.691 369.027 L 163.581 338.887 164.821 337.843 C 167.029 335.986,170.100 336.585,171.428 339.133 C 172.155 340.529,172.197 341.932,172.306 368.220 C 172.427 397.225,172.349 398.916,170.884 399.128 C 166.369 399.781,173.586 400.000,199.600 400.000 C 225.614 400.000,232.830 399.781,228.316 399.128 C 227.774 399.049,227.326 398.614,227.156 398.000 C 226.539 395.766,226.761 340.990,227.394 339.476 C 228.609 336.569,231.740 335.864,234.094 337.967 L 235.400 339.135 235.400 369.167 L 235.400 399.200 237.113 399.200 C 238.266 399.200,238.900 399.004,239.055 398.600 C 239.232 398.141,239.986 398.000,242.266 398.000 C 244.418 398.000,245.168 397.871,244.962 397.538 C 244.781 397.246,244.852 397.185,245.156 397.373 C 245.419 397.536,245.892 397.455,246.206 397.195 C 246.521 396.934,247.458 396.693,248.289 396.660 C 249.339 396.618,249.800 396.417,249.800 396.000 C 249.800 395.538,250.419 395.373,252.500 395.282 C 254.541 395.192,255.200 395.022,255.200 394.582 C 255.200 394.045,257.336 393.749,259.639 393.969 C 259.990 394.002,260.507 393.753,260.788 393.415 C 261.068 393.077,261.624 392.800,262.022 392.800 C 262.420 392.800,262.860 392.440,263.000 392.000 C 263.216 391.319,263.605 391.200,265.607 391.200 C 267.305 391.200,268.056 391.029,268.303 390.587 C 268.529 390.185,269.280 389.961,270.490 389.937 C 271.938 389.908,272.375 389.739,272.529 389.148 C 272.658 388.656,272.946 388.481,273.363 388.641 C 273.713 388.776,274.000 388.703,274.000 388.480 C 274.000 388.257,274.328 388.161,274.728 388.265 C 275.128 388.370,275.690 388.173,275.977 387.828 C 276.263 387.483,276.847 387.200,277.273 387.200 C 277.699 387.200,277.935 387.019,277.798 386.797 C 277.497 386.309,278.088 386.084,280.200 385.882 C 281.142 385.791,281.759 385.537,281.700 385.264 C 281.645 385.009,281.735 384.788,281.900 384.772 C 283.785 384.599,284.602 384.339,284.893 383.819 C 285.084 383.479,285.596 383.200,286.032 383.200 C 286.468 383.200,286.929 382.930,287.055 382.600 C 287.193 382.241,287.795 382.000,288.554 382.000 C 289.251 382.000,290.177 381.754,290.611 381.454 C 291.045 381.154,291.850 380.773,292.400 380.608 C 292.950 380.443,293.905 379.766,294.523 379.104 C 295.187 378.392,296.051 377.900,296.636 377.900 C 297.187 377.900,297.800 377.574,298.019 377.165 C 298.236 376.760,298.668 376.528,298.981 376.648 C 299.295 376.768,299.872 376.492,300.264 376.033 C 300.657 375.575,301.393 375.200,301.901 375.200 C 302.409 375.200,302.929 374.930,303.055 374.600 C 303.182 374.270,303.542 374.000,303.855 374.000 C 304.169 374.000,304.529 373.730,304.655 373.400 C 304.782 373.070,305.226 372.800,305.643 372.800 C 306.059 372.800,306.400 372.609,306.400 372.376 C 306.400 372.143,306.584 372.067,306.810 372.206 C 307.035 372.345,307.170 372.232,307.110 371.953 C 307.049 371.675,307.360 371.374,307.800 371.285 C 308.240 371.196,308.780 370.933,309.000 370.702 C 309.275 370.414,309.224 370.383,308.838 370.603 C 308.459 370.820,308.370 370.772,308.566 370.455 C 308.725 370.198,308.978 370.057,309.128 370.143 C 309.618 370.425,311.000 369.732,311.000 369.204 C 311.000 368.921,311.502 368.636,312.115 368.570 C 312.728 368.505,313.577 368.035,314.002 367.526 C 314.426 367.017,314.779 366.738,314.787 366.906 C 314.794 367.075,315.363 366.625,316.052 365.906 C 316.741 365.188,317.081 364.960,316.808 365.400 C 316.535 365.840,316.895 365.570,317.608 364.800 C 318.322 364.030,318.781 363.625,318.629 363.900 C 318.477 364.175,318.543 364.400,318.776 364.400 C 319.009 364.400,319.200 364.130,319.200 363.800 C 319.200 363.470,319.515 363.200,319.900 363.199 C 320.285 363.199,321.283 362.473,322.117 361.586 C 322.963 360.688,323.831 360.096,324.079 360.249 C 324.341 360.411,324.412 360.342,324.251 360.082 C 323.952 359.599,325.338 358.672,325.747 359.081 C 325.886 359.220,326.000 359.073,326.000 358.754 C 326.000 358.436,326.556 357.965,327.237 357.709 C 327.934 357.446,328.359 357.057,328.211 356.818 C 328.067 356.585,328.276 356.275,328.675 356.129 C 329.074 355.983,329.864 355.388,330.430 354.808 C 330.997 354.228,331.697 353.832,331.986 353.929 C 332.298 354.033,332.398 353.920,332.232 353.652 C 332.078 353.403,332.154 353.200,332.400 353.200 C 332.646 353.200,332.719 352.992,332.562 352.738 C 332.381 352.445,332.453 352.385,332.759 352.574 C 333.245 352.875,335.200 351.118,335.200 350.379 C 335.200 350.171,335.373 350.000,335.584 350.000 C 336.107 350.000,339.200 346.934,339.200 346.416 C 339.200 346.187,339.639 346.000,340.176 346.000 C 341.785 346.000,342.696 343.475,341.253 343.017 C 340.831 342.883,340.255 342.194,339.972 341.487 C 339.386 340.019,337.071 334.887,336.054 332.800 C 335.306 331.266,331.698 325.715,330.900 324.871 C 330.625 324.581,330.400 324.192,330.400 324.007 C 330.400 323.491,320.438 313.643,318.400 312.144 C 317.410 311.415,315.610 310.148,314.400 309.328 C 313.190 308.507,311.300 307.103,310.200 306.208 C 309.100 305.313,307.210 303.951,306.000 303.183 C 303.459 301.568,303.606 301.657,297.725 298.189 L 293.251 295.550 294.623 292.875 C 295.378 291.404,295.997 289.921,295.998 289.580 C 295.999 289.239,296.166 288.789,296.369 288.580 C 298.304 286.586,298.951 268.507,297.321 262.000 C 295.917 256.398,294.909 253.254,293.529 250.174 C 293.128 249.279,292.800 248.391,292.800 248.200 C 292.800 247.774,291.419 245.027,290.386 243.400 C 289.967 242.740,289.322 241.660,288.952 241.000 C 287.622 238.625,284.625 234.181,283.722 233.245 C 283.215 232.720,282.800 232.143,282.800 231.962 C 282.800 231.503,274.564 223.251,272.540 221.683 C 269.761 219.529,268.748 219.571,267.852 221.876 " stroke="none" fill="#18163b" fill-rule="evenodd"></path><path id="path1" d="M191.937 94.997 C 191.676 95.257,186.706 95.939,182.600 96.278 C 181.280 96.387,180.020 96.615,179.800 96.786 C 179.580 96.956,177.870 97.329,176.000 97.615 C 174.130 97.901,172.420 98.262,172.200 98.417 C 171.980 98.572,170.922 98.826,169.848 98.982 C 168.774 99.137,167.514 99.418,167.048 99.606 C 166.582 99.794,164.580 100.435,162.600 101.032 C 160.620 101.628,158.829 102.270,158.620 102.458 C 158.411 102.646,157.961 102.806,157.620 102.814 C 157.279 102.821,156.280 103.175,155.400 103.600 C 154.520 104.025,153.603 104.379,153.363 104.386 C 153.123 104.394,152.133 104.847,151.163 105.393 C 150.193 105.940,148.988 106.568,148.485 106.789 C 143.412 109.021,136.333 115.587,134.395 119.857 C 133.711 121.366,132.982 122.913,132.775 123.295 C 132.299 124.177,132.281 131.879,132.755 132.172 C 132.950 132.293,133.236 133.068,133.391 133.896 C 133.865 136.431,135.793 140.503,137.495 142.564 C 142.048 148.079,141.258 154.655,135.338 160.497 C 131.868 163.923,131.200 164.651,131.200 165.008 C 131.200 165.266,129.402 169.335,128.775 170.495 C 128.569 170.877,128.397 171.507,128.394 171.895 C 128.391 172.283,128.101 173.410,127.750 174.400 C 126.742 177.241,125.650 184.854,125.621 189.250 C 125.592 193.473,125.303 194.625,124.140 195.155 C 123.012 195.669,121.393 194.310,120.929 192.458 C 120.790 191.905,120.435 190.991,120.141 190.427 C 119.846 189.862,119.604 188.748,119.602 187.950 C 119.601 187.153,119.330 185.735,119.000 184.800 C 118.670 183.865,118.399 182.447,118.398 181.650 C 118.396 180.852,118.131 179.693,117.808 179.074 C 117.485 178.455,117.102 177.015,116.957 175.874 C 116.812 174.733,116.567 173.620,116.413 173.400 C 116.259 173.180,115.721 171.740,115.218 170.200 C 113.763 165.748,112.958 165.492,108.997 168.220 C 102.687 172.566,101.926 181.959,107.153 191.000 C 110.955 197.578,117.078 203.641,122.800 206.495 C 128.323 209.251,129.464 210.850,132.037 219.452 C 132.243 220.141,132.949 221.380,133.606 222.207 C 134.262 223.034,134.800 223.967,134.800 224.281 C 134.800 224.845,136.153 228.436,136.803 229.600 C 136.988 229.930,137.913 231.730,138.860 233.600 C 139.806 235.470,140.692 237.090,140.829 237.200 C 140.965 237.310,141.329 237.881,141.638 238.468 C 142.825 240.725,145.012 244.301,146.671 246.698 C 147.622 248.072,148.400 249.300,148.400 249.426 C 148.400 249.713,153.399 256.131,154.907 257.780 C 156.541 259.568,156.843 261.282,156.979 269.547 C 157.130 278.749,158.123 285.682,159.830 289.460 C 160.144 290.154,160.400 291.153,160.400 291.680 C 160.400 292.208,160.571 292.811,160.779 293.020 C 161.316 293.558,163.200 297.161,163.200 297.650 C 163.200 297.874,163.470 298.327,163.800 298.657 C 164.130 298.987,164.400 299.604,164.400 300.029 C 164.400 300.453,164.562 300.800,164.760 300.800 C 165.071 300.800,166.653 303.035,167.154 304.182 C 167.347 304.622,167.472 304.776,169.605 307.200 C 170.476 308.190,171.191 309.141,171.194 309.313 C 171.203 309.770,180.063 318.400,180.524 318.400 C 180.738 318.400,181.473 318.949,182.157 319.619 C 182.841 320.290,184.390 321.544,185.600 322.407 C 186.810 323.270,187.980 324.116,188.200 324.288 C 188.420 324.460,189.410 325.139,190.400 325.799 C 191.390 326.458,192.290 327.088,192.400 327.199 C 192.757 327.558,194.177 328.392,195.130 328.803 C 195.642 329.023,196.844 329.742,197.802 330.402 C 199.993 331.908,201.480 331.921,203.680 330.450 C 204.626 329.817,206.431 328.816,207.692 328.225 C 208.953 327.633,210.080 326.995,210.197 326.806 C 210.314 326.616,210.947 326.343,211.605 326.199 C 212.262 326.055,212.800 325.783,212.800 325.596 C 212.800 325.409,213.655 324.839,214.700 324.328 C 215.745 323.818,216.744 323.176,216.920 322.900 C 217.096 322.625,217.413 322.400,217.624 322.400 C 217.964 322.400,220.617 320.660,223.054 318.838 C 223.523 318.487,224.320 317.930,224.825 317.600 C 225.330 317.270,226.789 316.055,228.068 314.900 C 229.347 313.745,230.547 312.800,230.736 312.800 C 231.214 312.800,235.600 308.367,235.600 307.884 C 235.600 307.667,236.275 306.734,237.100 305.811 C 240.045 302.516,240.811 301.496,241.047 300.555 C 241.179 300.030,241.418 299.600,241.578 299.600 C 241.933 299.600,244.000 295.585,244.000 294.894 C 244.000 294.622,244.180 294.400,244.400 294.400 C 244.620 294.400,244.800 293.612,244.800 292.649 C 244.800 291.580,245.034 290.704,245.400 290.400 C 245.730 290.126,246.000 289.516,246.000 289.045 C 246.000 288.574,246.360 287.516,246.800 286.696 C 247.240 285.875,247.601 284.797,247.602 284.301 C 247.604 283.806,247.874 282.884,248.202 282.254 C 248.531 281.624,248.800 280.223,248.800 279.142 C 248.800 277.762,248.979 277.106,249.400 276.945 C 249.911 276.748,250.003 275.171,250.021 266.257 C 250.050 251.166,250.511 249.153,255.185 243.717 C 255.413 243.451,255.600 243.073,255.600 242.877 C 255.600 242.681,256.148 241.763,256.818 240.839 C 257.488 239.914,258.208 238.762,258.417 238.279 C 258.627 237.795,258.972 237.130,259.184 236.800 C 259.396 236.470,260.039 235.210,260.613 234.000 C 261.187 232.790,262.077 230.990,262.592 230.000 C 263.107 229.010,264.107 226.940,264.816 225.400 C 265.524 223.860,266.800 221.139,267.652 219.354 C 268.503 217.569,269.200 215.886,269.200 215.615 C 269.200 215.108,269.955 213.231,271.112 210.865 C 271.643 209.778,272.548 209.140,275.982 207.433 C 287.795 201.562,294.847 192.804,297.201 181.076 C 298.858 172.827,289.906 162.907,286.843 169.597 C 286.590 170.149,285.948 171.410,285.415 172.400 C 284.883 173.390,284.435 174.560,284.421 175.000 C 284.407 175.440,284.147 176.276,283.843 176.858 C 283.539 177.440,283.158 179.420,282.996 181.258 C 282.834 183.096,282.454 184.955,282.151 185.389 C 281.848 185.823,281.600 187.135,281.600 188.305 C 281.600 190.866,280.669 192.859,278.566 194.800 C 274.529 198.526,274.040 197.965,274.281 189.883 C 274.533 181.407,273.584 172.076,272.155 169.000 C 271.746 168.120,270.777 166.659,270.001 165.752 C 269.226 164.846,268.386 163.676,268.136 163.152 C 266.441 159.602,266.346 159.159,266.497 155.483 C 266.664 151.401,266.856 150.759,269.654 144.975 C 270.724 142.762,271.601 140.692,271.602 140.375 C 271.604 140.059,271.891 139.260,272.242 138.600 C 278.902 126.048,267.205 110.614,244.600 102.127 C 243.720 101.797,242.460 101.284,241.800 100.988 C 241.140 100.692,239.836 100.333,238.902 100.190 C 237.968 100.047,237.109 99.776,236.993 99.588 C 236.876 99.400,235.931 99.133,234.891 98.996 C 233.851 98.858,232.640 98.587,232.200 98.393 C 231.125 97.921,226.010 96.821,222.800 96.373 C 221.370 96.173,219.210 95.808,218.000 95.562 C 215.651 95.084,192.355 94.579,191.937 94.997 M230.600 338.000 C 228.265 338.892,228.385 337.097,228.497 369.434 L 228.600 399.000 231.200 399.000 L 233.800 399.000 234.070 397.200 C 234.821 392.202,234.420 341.038,233.620 339.726 C 232.672 338.171,231.662 337.594,230.600 338.000 M165.539 339.200 C 164.351 340.387,164.341 340.433,164.575 343.700 C 165.209 352.557,165.246 354.114,164.830 354.530 C 164.276 355.084,164.225 397.326,164.777 398.357 C 165.256 399.252,169.532 399.549,170.056 398.723 C 170.238 398.435,170.391 385.027,170.394 368.927 L 170.400 339.654 169.238 338.827 C 167.671 337.711,166.955 337.784,165.539 339.200 " stroke="none" fill="#f9e6b6" fill-rule="evenodd"></path><path id="path2" d="M170.000 0.400 C 170.000 0.641,168.350 0.800,165.849 0.800 C 162.819 0.800,161.575 0.948,161.242 1.349 C 160.954 1.696,159.616 1.966,157.598 2.083 C 155.387 2.211,154.184 2.472,153.672 2.934 C 153.267 3.301,152.828 3.494,152.696 3.363 C 152.209 2.876,149.937 3.660,150.159 4.238 C 150.331 4.685,149.844 4.800,147.775 4.800 C 145.833 4.800,145.117 4.952,144.945 5.400 C 144.780 5.829,144.109 6.000,142.586 6.000 C 141.311 6.000,140.236 6.221,139.906 6.551 C 139.603 6.854,138.780 7.229,138.077 7.383 C 137.372 7.538,136.800 7.918,136.800 8.232 C 136.800 8.643,136.273 8.800,134.889 8.800 C 133.838 8.800,132.623 9.048,132.189 9.352 C 131.755 9.655,130.596 9.996,129.614 10.109 C 128.632 10.222,127.762 10.514,127.681 10.757 C 127.600 11.001,127.352 11.200,127.131 11.200 C 126.909 11.200,126.384 11.605,125.963 12.100 C 125.409 12.753,125.265 12.808,125.442 12.300 C 125.736 11.455,125.084 11.375,124.420 12.176 C 124.157 12.493,123.550 12.812,123.071 12.885 C 122.592 12.959,122.245 13.240,122.300 13.509 C 122.367 13.838,121.814 14.000,120.624 14.000 C 119.647 14.000,118.729 14.191,118.585 14.425 C 118.300 14.886,116.386 15.769,115.900 15.665 C 115.735 15.629,115.645 15.825,115.700 16.100 C 115.756 16.379,115.326 16.655,114.729 16.724 C 114.140 16.792,113.443 17.107,113.180 17.424 C 112.917 17.741,112.178 18.000,111.538 18.000 C 110.873 18.000,110.276 18.257,110.145 18.600 C 110.018 18.930,109.485 19.200,108.961 19.200 C 108.436 19.200,107.782 19.560,107.507 20.000 C 107.232 20.440,106.750 20.800,106.435 20.800 C 106.121 20.800,105.554 21.080,105.176 21.421 C 104.799 21.763,104.122 22.071,103.672 22.105 C 103.223 22.138,102.888 22.354,102.928 22.583 C 102.967 22.812,102.775 22.955,102.500 22.900 C 102.225 22.845,102.000 22.960,102.000 23.156 C 102.000 23.351,101.775 23.503,101.500 23.493 C 100.163 23.443,99.600 23.652,99.600 24.200 C 99.600 24.530,99.253 24.800,98.829 24.800 C 98.404 24.800,97.787 25.070,97.457 25.400 C 97.127 25.730,96.595 26.000,96.275 26.000 C 95.955 26.000,95.594 26.379,95.473 26.842 C 95.349 27.316,95.023 27.602,94.726 27.496 C 94.018 27.243,92.718 27.944,93.012 28.420 C 93.142 28.629,92.776 28.800,92.200 28.800 C 91.624 28.800,91.252 28.961,91.374 29.158 C 91.620 29.557,90.461 30.192,89.200 30.350 C 88.980 30.377,88.800 30.664,88.800 30.987 C 88.800 31.311,88.569 31.486,88.286 31.378 C 88.003 31.269,87.381 31.545,86.903 31.990 C 86.425 32.436,85.852 32.800,85.631 32.800 C 85.409 32.800,85.033 33.165,84.794 33.611 C 84.555 34.057,84.201 34.324,84.007 34.205 C 83.813 34.085,83.417 34.305,83.127 34.693 C 82.837 35.082,82.330 35.460,82.000 35.532 C 81.670 35.605,81.256 35.920,81.080 36.232 C 80.904 36.545,80.544 36.801,80.280 36.802 C 80.016 36.803,79.115 37.433,78.278 38.202 C 77.440 38.971,76.495 39.600,76.178 39.600 C 75.860 39.600,75.600 39.870,75.600 40.200 C 75.600 40.530,75.336 40.800,75.014 40.800 C 74.692 40.800,74.227 41.175,73.982 41.634 C 73.736 42.093,73.445 42.378,73.334 42.268 C 73.224 42.157,72.441 42.727,71.595 43.533 C 69.530 45.503,68.901 46.000,68.473 46.000 C 68.274 46.000,67.782 46.439,67.379 46.976 C 66.976 47.513,66.501 47.862,66.323 47.752 C 66.145 47.643,66.000 47.833,66.000 48.176 C 66.000 48.519,65.730 48.800,65.400 48.800 C 65.070 48.800,64.800 49.070,64.800 49.400 C 64.800 49.730,64.646 50.000,64.458 50.000 C 63.955 50.000,62.000 51.893,62.000 52.381 C 62.000 52.611,61.730 52.800,61.400 52.800 C 61.070 52.800,60.800 53.070,60.800 53.400 C 60.800 53.730,60.524 54.000,60.187 54.000 C 59.851 54.000,59.474 54.263,59.350 54.585 C 59.227 54.906,58.777 55.280,58.350 55.416 C 57.352 55.733,55.733 57.352,55.416 58.350 C 55.280 58.777,54.906 59.227,54.585 59.350 C 54.263 59.474,54.000 59.851,54.000 60.187 C 54.000 60.524,53.730 60.800,53.400 60.800 C 53.070 60.800,52.800 61.070,52.800 61.400 C 52.800 61.730,52.611 62.000,52.381 62.000 C 51.893 62.000,50.000 63.955,50.000 64.458 C 50.000 64.646,49.730 64.800,49.400 64.800 C 49.070 64.800,48.800 65.070,48.800 65.400 C 48.800 65.730,48.500 66.000,48.133 66.000 C 47.767 66.000,47.588 66.121,47.737 66.270 C 47.885 66.418,47.540 66.846,46.970 67.220 C 46.400 67.593,45.975 68.031,46.025 68.192 C 46.156 68.613,45.218 69.909,43.533 71.633 C 42.727 72.458,42.157 73.224,42.268 73.334 C 42.378 73.445,42.093 73.736,41.634 73.982 C 41.175 74.227,40.800 74.692,40.800 75.014 C 40.800 75.336,40.530 75.600,40.200 75.600 C 39.870 75.600,39.600 75.860,39.600 76.178 C 39.600 76.495,38.971 77.440,38.202 78.278 C 37.433 79.115,36.803 80.016,36.802 80.280 C 36.801 80.544,36.545 80.904,36.232 81.080 C 35.920 81.256,35.605 81.670,35.532 82.000 C 35.460 82.330,35.082 82.837,34.693 83.127 C 34.305 83.417,34.085 83.813,34.205 84.007 C 34.324 84.201,34.057 84.555,33.611 84.794 C 33.165 85.033,32.800 85.492,32.800 85.814 C 32.800 86.136,32.620 86.400,32.400 86.400 C 32.180 86.400,32.000 86.670,32.000 87.000 C 32.000 87.330,31.809 87.600,31.576 87.600 C 31.343 87.600,31.257 87.769,31.385 87.975 C 31.512 88.182,31.332 88.510,30.983 88.705 C 30.635 88.900,30.298 89.316,30.235 89.630 C 30.003 90.785,29.506 91.589,29.158 91.374 C 28.961 91.252,28.800 91.624,28.800 92.200 C 28.800 92.776,28.629 93.142,28.420 93.012 C 27.944 92.718,27.243 94.018,27.496 94.726 C 27.602 95.023,27.316 95.349,26.842 95.473 C 26.379 95.594,26.000 95.955,26.000 96.275 C 26.000 96.595,25.730 97.127,25.400 97.457 C 25.070 97.787,24.800 98.404,24.800 98.829 C 24.800 99.253,24.530 99.600,24.200 99.600 C 23.652 99.600,23.443 100.163,23.493 101.500 C 23.503 101.775,23.351 102.000,23.156 102.000 C 22.960 102.000,22.845 102.225,22.900 102.500 C 22.955 102.775,22.812 102.967,22.583 102.928 C 22.354 102.888,22.138 103.223,22.105 103.672 C 22.071 104.122,21.763 104.799,21.421 105.176 C 21.080 105.554,20.800 106.121,20.800 106.435 C 20.800 106.750,20.425 107.242,19.967 107.528 C 19.494 107.823,19.229 108.298,19.354 108.624 C 19.475 108.941,19.390 109.200,19.164 109.200 C 18.938 109.200,18.867 109.384,19.006 109.610 C 19.145 109.835,19.021 109.970,18.730 109.910 C 18.388 109.839,18.153 110.297,18.069 111.200 C 17.997 111.970,17.698 112.870,17.405 113.200 C 17.112 113.530,16.807 114.250,16.727 114.800 C 16.647 115.350,16.360 115.755,16.091 115.700 C 15.821 115.645,15.629 115.735,15.665 115.900 C 15.769 116.386,14.886 118.300,14.425 118.585 C 14.191 118.729,14.000 119.647,14.000 120.624 C 14.000 121.814,13.838 122.367,13.509 122.300 C 13.240 122.245,12.959 122.592,12.885 123.071 C 12.812 123.550,12.493 124.157,12.176 124.420 C 11.375 125.084,11.455 125.736,12.300 125.442 C 12.808 125.265,12.753 125.409,12.100 125.963 C 11.605 126.384,11.200 126.909,11.200 127.131 C 11.200 127.352,11.001 127.600,10.757 127.681 C 10.514 127.762,10.222 128.632,10.109 129.614 C 9.996 130.596,9.655 131.755,9.352 132.189 C 9.048 132.623,8.800 133.838,8.800 134.889 C 8.800 136.273,8.643 136.800,8.232 136.800 C 7.918 136.800,7.538 137.372,7.383 138.077 C 7.229 138.780,6.887 139.570,6.625 139.832 C 6.362 140.095,6.103 141.274,6.049 142.453 C 5.987 143.818,5.743 144.712,5.376 144.918 C 4.968 145.146,4.800 145.989,4.800 147.807 C 4.800 149.848,4.685 150.331,4.238 150.159 C 3.660 149.937,2.876 152.209,3.363 152.696 C 3.494 152.828,3.301 153.267,2.934 153.672 C 2.472 154.184,2.211 155.387,2.083 157.598 C 1.966 159.616,1.696 160.954,1.349 161.242 C 0.948 161.575,0.800 162.819,0.800 165.849 C 0.800 168.350,0.641 170.000,0.400 170.000 C 0.137 170.000,0.000 180.267,0.000 200.000 C 0.000 219.733,0.137 230.000,0.400 230.000 C 0.641 230.000,0.800 231.650,0.800 234.151 C 0.800 237.181,0.948 238.425,1.349 238.758 C 1.696 239.046,1.966 240.384,2.083 242.402 C 2.211 244.613,2.472 245.816,2.934 246.328 C 3.301 246.733,3.494 247.172,3.363 247.304 C 2.876 247.791,3.660 250.063,4.238 249.841 C 4.685 249.669,4.800 250.156,4.800 252.225 C 4.800 254.167,4.952 254.883,5.400 255.055 C 5.829 255.220,6.000 255.891,6.000 257.414 C 6.000 258.689,6.221 259.764,6.551 260.094 C 6.854 260.397,7.229 261.220,7.383 261.923 C 7.538 262.628,7.918 263.200,8.232 263.200 C 8.644 263.200,8.800 263.728,8.800 265.124 C 8.800 266.196,9.060 267.391,9.387 267.824 C 9.710 268.251,9.980 269.262,9.987 270.071 C 9.994 270.881,10.261 271.804,10.580 272.123 C 10.899 272.442,11.284 273.220,11.434 273.852 C 11.584 274.483,11.935 275.270,12.212 275.600 C 12.490 275.930,12.792 276.560,12.882 277.000 C 12.973 277.440,13.262 277.755,13.524 277.700 C 13.836 277.635,14.000 278.213,14.000 279.376 C 14.000 280.353,14.191 281.271,14.425 281.415 C 14.886 281.700,15.769 283.614,15.665 284.100 C 15.629 284.265,15.821 284.355,16.091 284.300 C 16.360 284.245,16.647 284.650,16.727 285.200 C 16.807 285.750,17.112 286.470,17.405 286.800 C 17.698 287.130,17.997 288.030,18.069 288.800 C 18.153 289.703,18.388 290.161,18.730 290.090 C 19.021 290.030,19.145 290.165,19.006 290.390 C 18.867 290.616,18.938 290.800,19.164 290.800 C 19.390 290.800,19.475 291.059,19.354 291.376 C 19.229 291.702,19.494 292.177,19.967 292.472 C 20.425 292.758,20.800 293.250,20.800 293.565 C 20.800 293.879,21.080 294.446,21.421 294.824 C 21.763 295.201,22.071 295.878,22.105 296.328 C 22.138 296.777,22.354 297.112,22.583 297.072 C 22.812 297.033,22.955 297.225,22.900 297.500 C 22.845 297.775,22.960 298.000,23.156 298.000 C 23.351 298.000,23.503 298.225,23.493 298.500 C 23.443 299.837,23.652 300.400,24.200 300.400 C 24.530 300.400,24.800 300.747,24.800 301.171 C 24.800 301.596,25.070 302.213,25.400 302.543 C 25.730 302.873,26.000 303.405,26.000 303.725 C 26.000 304.045,26.379 304.406,26.842 304.527 C 27.316 304.651,27.602 304.977,27.496 305.274 C 27.243 305.982,27.944 307.282,28.420 306.988 C 28.629 306.858,28.800 307.224,28.800 307.800 C 28.800 308.376,28.961 308.748,29.158 308.626 C 29.557 308.380,30.192 309.539,30.350 310.800 C 30.377 311.020,30.664 311.200,30.987 311.200 C 31.311 311.200,31.486 311.431,31.378 311.714 C 31.269 311.997,31.545 312.619,31.990 313.097 C 32.436 313.575,32.800 314.148,32.800 314.369 C 32.800 314.591,33.165 314.967,33.611 315.206 C 34.057 315.445,34.324 315.799,34.205 315.993 C 34.085 316.187,34.305 316.583,34.693 316.873 C 35.082 317.163,35.460 317.670,35.532 318.000 C 35.605 318.330,35.920 318.744,36.232 318.920 C 36.545 319.096,36.801 319.456,36.802 319.720 C 36.803 319.984,37.433 320.885,38.202 321.722 C 38.971 322.560,39.600 323.505,39.600 323.822 C 39.600 324.140,39.870 324.400,40.200 324.400 C 40.530 324.400,40.800 324.676,40.800 325.013 C 40.800 325.349,41.070 325.729,41.400 325.855 C 41.730 325.982,42.000 326.246,42.000 326.443 C 42.000 326.639,42.675 327.507,43.500 328.371 C 45.502 330.469,46.000 331.097,46.000 331.527 C 46.000 331.726,46.439 332.218,46.976 332.621 C 47.513 333.024,47.862 333.499,47.752 333.677 C 47.643 333.855,47.833 334.000,48.176 334.000 C 48.519 334.000,48.800 334.270,48.800 334.600 C 48.800 334.930,49.070 335.200,49.400 335.200 C 49.730 335.200,50.000 335.354,50.000 335.542 C 50.000 336.045,51.893 338.000,52.381 338.000 C 52.611 338.000,52.800 338.270,52.800 338.600 C 52.800 338.930,53.070 339.200,53.400 339.200 C 53.730 339.200,54.000 339.459,54.000 339.776 C 54.000 341.811,56.441 340.777,57.534 338.279 C 60.382 331.776,64.224 325.315,66.738 322.800 C 67.432 322.106,68.000 321.322,68.000 321.057 C 68.000 320.477,71.989 316.603,73.970 315.259 C 74.749 314.730,75.570 314.086,75.793 313.828 C 76.668 312.819,79.952 310.413,81.632 309.551 C 82.604 309.052,83.490 308.520,83.600 308.370 C 83.891 307.972,87.571 305.200,87.808 305.200 C 87.918 305.200,88.905 304.570,90.000 303.800 C 91.095 303.030,92.098 302.400,92.228 302.400 C 92.358 302.400,93.395 301.794,94.532 301.053 C 95.669 300.312,99.276 298.382,102.547 296.764 C 109.211 293.467,109.170 293.511,108.259 290.622 C 107.897 289.471,107.600 287.881,107.600 287.088 C 107.600 286.296,107.443 285.550,107.252 285.432 C 106.001 284.659,106.007 263.737,107.259 262.964 C 107.446 262.848,107.606 261.998,107.614 261.076 C 107.621 260.154,107.975 258.680,108.400 257.800 C 108.825 256.920,109.179 255.930,109.187 255.600 C 109.203 254.907,110.721 250.794,111.180 250.200 C 111.350 249.980,111.606 249.311,111.749 248.714 C 111.892 248.117,112.546 246.831,113.204 245.856 C 113.862 244.881,114.400 243.988,114.400 243.871 C 114.400 243.340,118.659 237.262,119.860 236.081 C 120.597 235.355,121.200 234.572,121.200 234.340 C 121.200 233.794,128.044 227.019,129.245 226.376 C 129.750 226.106,130.532 225.441,130.982 224.900 C 131.432 224.359,132.104 223.586,132.476 223.182 C 133.185 222.412,133.029 221.775,130.962 217.000 C 130.676 216.340,129.972 214.508,129.397 212.929 C 128.188 209.608,128.205 209.625,124.442 207.793 C 113.937 202.681,104.698 191.649,103.769 183.109 C 103.619 181.729,103.317 180.375,103.099 180.100 C 102.836 179.769,102.843 179.230,103.118 178.500 C 103.347 177.895,103.641 176.503,103.772 175.407 C 104.208 171.760,107.051 168.525,112.069 165.965 C 113.986 164.987,113.946 164.207,111.817 161.000 C 109.920 158.144,107.598 149.955,107.599 146.124 C 107.600 145.202,107.444 144.351,107.254 144.233 C 106.959 144.051,106.395 135.482,106.292 129.600 C 106.222 125.614,106.949 113.155,107.264 112.961 C 107.449 112.846,107.600 111.638,107.600 110.276 C 107.601 108.914,107.887 106.450,108.238 104.800 C 108.588 103.150,109.017 100.900,109.191 99.800 C 109.871 95.510,110.876 90.982,111.229 90.620 C 111.433 90.411,111.600 89.898,111.600 89.480 C 111.600 89.063,111.852 88.154,112.161 87.460 C 112.470 86.767,113.176 84.760,113.730 83.000 C 115.531 77.280,118.501 70.712,121.145 66.600 C 121.711 65.720,122.518 64.370,122.939 63.600 C 124.028 61.608,126.221 58.760,129.000 55.728 C 130.320 54.288,131.522 52.815,131.671 52.455 C 131.820 52.095,132.418 51.440,132.999 51.000 C 133.581 50.560,135.122 49.255,136.425 48.100 C 139.045 45.777,138.932 45.829,140.052 46.428 C 140.983 46.926,140.808 48.440,139.547 50.794 C 139.136 51.561,138.800 52.575,138.800 53.048 C 138.800 53.521,138.531 54.424,138.202 55.054 C 137.541 56.322,137.333 63.788,137.948 64.168 C 138.381 64.435,141.200 61.743,141.200 61.062 C 141.200 60.477,151.677 50.000,152.263 50.000 C 152.480 50.000,153.717 48.965,155.011 47.700 C 156.305 46.435,157.662 45.220,158.026 45.000 C 158.391 44.780,159.830 43.745,161.225 42.700 C 162.619 41.655,163.979 40.800,164.247 40.800 C 164.514 40.800,164.793 40.665,164.867 40.500 C 165.089 40.000,170.951 36.133,171.982 35.806 C 172.512 35.638,173.625 35.007,174.457 34.404 C 175.289 33.802,177.102 32.896,178.485 32.390 C 179.868 31.885,181.270 31.265,181.600 31.011 C 182.423 30.379,184.863 29.409,188.200 28.389 C 189.740 27.918,191.591 27.278,192.314 26.967 C 193.036 26.655,194.049 26.400,194.565 26.400 C 195.080 26.400,196.143 26.132,196.926 25.805 C 197.709 25.478,199.666 25.104,201.275 24.974 C 202.884 24.844,204.560 24.566,205.000 24.355 C 205.440 24.145,208.140 24.024,211.000 24.087 L 216.200 24.200 216.324 25.277 C 216.421 26.116,216.200 26.485,215.324 26.948 C 212.690 28.338,207.032 35.036,205.312 38.800 C 203.075 43.696,203.256 44.716,206.140 43.444 C 209.077 42.149,219.251 39.599,221.476 39.599 C 222.178 39.600,222.848 39.446,222.965 39.257 C 223.635 38.172,241.693 37.155,249.400 37.768 C 253.766 38.115,258.815 38.900,259.042 39.267 C 259.155 39.450,259.864 39.600,260.618 39.600 C 261.844 39.600,264.325 40.243,270.600 42.186 C 274.151 43.286,280.848 46.868,281.330 47.925 C 281.833 49.030,279.903 51.200,278.417 51.200 C 277.994 51.200,277.536 51.380,277.400 51.600 C 277.264 51.820,276.846 52.000,276.470 52.000 C 276.095 52.000,275.116 52.360,274.296 52.800 C 273.475 53.240,272.574 53.600,272.295 53.600 C 271.125 53.600,261.764 58.656,260.358 60.048 C 259.618 60.781,262.001 61.197,266.959 61.202 C 268.342 61.204,269.897 61.464,270.546 61.802 C 271.176 62.131,272.394 62.400,273.252 62.400 C 274.110 62.400,275.934 62.685,277.306 63.033 C 283.229 64.535,285.856 65.323,286.686 65.844 C 287.173 66.150,287.916 66.400,288.337 66.400 C 288.758 66.400,289.307 66.648,289.559 66.950 C 289.810 67.253,290.687 67.615,291.508 67.755 C 292.328 67.895,293.707 68.547,294.571 69.205 C 295.435 69.862,296.285 70.400,296.459 70.400 C 296.959 70.400,301.607 73.671,303.100 75.074 C 304.726 76.601,304.450 77.612,302.105 78.718 C 299.114 80.128,292.400 86.722,292.400 88.250 C 292.400 88.570,292.040 89.538,291.600 90.400 C 291.117 91.347,290.800 92.758,290.800 93.960 C 290.800 95.056,290.620 96.064,290.400 96.200 C 290.180 96.336,290.000 97.146,290.000 98.000 C 290.000 98.854,290.180 99.664,290.400 99.800 C 290.620 99.936,290.800 100.734,290.800 101.573 C 290.800 102.413,291.078 103.887,291.418 104.850 C 291.759 105.812,292.197 107.590,292.392 108.800 C 292.587 110.010,293.028 112.350,293.373 114.000 C 293.717 115.650,293.999 117.549,294.000 118.220 C 294.000 118.891,294.165 119.611,294.366 119.820 C 296.167 121.688,296.005 151.011,294.171 155.060 C 293.857 155.754,293.600 156.544,293.600 156.816 C 293.600 157.523,290.502 163.889,290.011 164.193 C 288.927 164.863,289.634 166.314,291.695 167.646 C 295.824 170.315,298.926 177.167,297.655 180.813 C 297.405 181.532,297.200 182.588,297.200 183.160 C 297.199 185.048,295.051 189.865,292.142 194.502 C 290.758 196.708,284.655 202.983,282.600 204.313 C 280.299 205.802,273.662 209.200,273.055 209.200 C 272.397 209.200,270.978 210.757,270.686 211.800 C 270.563 212.240,270.001 213.860,269.439 215.400 C 268.213 218.759,268.209 218.800,269.120 218.800 C 272.349 218.800,286.145 233.063,289.403 239.770 C 289.625 240.227,290.269 241.320,290.835 242.200 C 291.921 243.891,292.929 245.984,294.398 249.600 C 294.889 250.810,295.428 252.076,295.595 252.413 C 295.762 252.750,296.034 253.644,296.200 254.400 C 296.366 255.156,296.656 256.050,296.844 256.387 C 297.368 257.327,298.426 261.504,298.874 264.400 C 299.544 268.734,299.115 284.713,298.285 286.361 C 297.908 287.110,297.600 287.986,297.600 288.308 C 297.600 288.629,296.970 290.238,296.200 291.882 C 294.479 295.557,294.469 295.329,296.388 296.195 C 297.262 296.589,298.280 297.246,298.650 297.655 C 299.021 298.065,299.488 298.400,299.688 298.400 C 300.274 298.400,306.819 302.359,309.000 304.033 C 310.100 304.877,311.674 306.070,312.497 306.684 C 313.320 307.298,314.382 308.115,314.858 308.500 C 315.333 308.885,315.898 309.200,316.113 309.200 C 317.339 309.200,330.933 322.585,332.575 325.409 C 333.212 326.504,334.167 327.975,334.697 328.678 C 335.921 330.300,339.774 337.834,340.151 339.340 C 340.952 342.548,344.400 344.788,344.400 342.100 C 344.400 341.821,344.760 341.284,345.200 340.907 C 345.640 340.530,346.000 339.992,346.000 339.711 C 346.000 339.430,346.270 339.200,346.600 339.200 C 346.930 339.200,347.200 338.930,347.200 338.600 C 347.200 338.270,347.389 338.000,347.619 338.000 C 348.107 338.000,350.000 336.045,350.000 335.542 C 350.000 335.354,350.270 335.200,350.600 335.200 C 350.930 335.200,351.200 334.930,351.200 334.600 C 351.200 334.270,351.481 334.000,351.824 334.000 C 352.167 334.000,352.357 333.855,352.248 333.677 C 352.138 333.499,352.487 333.024,353.024 332.621 C 353.561 332.218,354.000 331.726,354.000 331.527 C 354.000 331.097,354.498 330.469,356.500 328.371 C 357.325 327.507,358.000 326.639,358.000 326.443 C 358.000 326.246,358.270 325.982,358.600 325.855 C 358.930 325.729,359.200 325.349,359.200 325.013 C 359.200 324.676,359.470 324.400,359.800 324.400 C 360.130 324.400,360.400 324.140,360.400 323.822 C 360.400 323.505,361.029 322.560,361.798 321.722 C 362.567 320.885,363.197 319.984,363.198 319.720 C 363.199 319.456,363.455 319.096,363.768 318.920 C 364.080 318.744,364.395 318.330,364.468 318.000 C 364.540 317.670,364.918 317.163,365.307 316.873 C 365.695 316.583,365.915 316.187,365.795 315.993 C 365.676 315.799,365.943 315.445,366.389 315.206 C 366.835 314.967,367.200 314.591,367.200 314.369 C 367.200 314.148,367.564 313.575,368.010 313.097 C 368.455 312.619,368.731 311.997,368.622 311.714 C 368.514 311.431,368.689 311.200,369.013 311.200 C 369.336 311.200,369.623 311.020,369.650 310.800 C 369.808 309.539,370.443 308.380,370.842 308.626 C 371.039 308.748,371.200 308.376,371.200 307.800 C 371.200 307.224,371.371 306.858,371.580 306.988 C 372.056 307.282,372.757 305.982,372.504 305.274 C 372.398 304.977,372.684 304.651,373.158 304.527 C 373.621 304.406,374.000 304.045,374.000 303.725 C 374.000 303.405,374.270 302.873,374.600 302.543 C 374.930 302.213,375.200 301.596,375.200 301.171 C 375.200 300.747,375.470 300.400,375.800 300.400 C 376.348 300.400,376.557 299.837,376.507 298.500 C 376.497 298.225,376.649 298.000,376.844 298.000 C 377.040 298.000,377.155 297.775,377.100 297.500 C 377.045 297.225,377.188 297.033,377.417 297.072 C 377.646 297.112,377.862 296.777,377.895 296.328 C 377.929 295.878,378.237 295.201,378.579 294.824 C 378.920 294.446,379.200 293.879,379.200 293.565 C 379.200 293.250,379.572 292.760,380.027 292.476 C 380.481 292.192,380.781 291.744,380.692 291.480 C 380.603 291.216,380.797 290.803,381.123 290.563 C 381.450 290.322,381.783 289.524,381.863 288.789 C 381.944 288.054,382.261 287.171,382.568 286.826 C 382.876 286.482,383.193 285.750,383.273 285.200 C 383.353 284.650,383.640 284.245,383.909 284.300 C 384.179 284.355,384.371 284.265,384.335 284.100 C 384.231 283.614,385.114 281.700,385.575 281.415 C 385.809 281.271,386.000 280.353,386.000 279.376 C 386.000 278.213,386.164 277.635,386.476 277.700 C 386.738 277.755,387.027 277.440,387.118 277.000 C 387.208 276.560,387.510 275.930,387.788 275.600 C 388.065 275.270,388.421 274.462,388.578 273.804 C 388.735 273.146,389.050 272.493,389.279 272.351 C 389.507 272.210,389.785 271.308,389.895 270.347 C 390.006 269.386,390.345 268.245,390.648 267.811 C 390.952 267.377,391.200 266.162,391.200 265.111 C 391.200 263.727,391.357 263.200,391.768 263.200 C 392.082 263.200,392.462 262.628,392.617 261.923 C 392.771 261.220,393.146 260.397,393.449 260.094 C 393.779 259.764,394.000 258.689,394.000 257.414 C 394.000 255.891,394.171 255.220,394.600 255.055 C 395.048 254.883,395.200 254.167,395.200 252.225 C 395.200 250.127,395.311 249.668,395.776 249.846 C 396.193 250.006,396.419 249.647,396.597 248.533 C 396.733 247.690,397.045 246.640,397.291 246.200 C 397.537 245.760,397.820 244.008,397.920 242.307 C 398.034 240.367,398.307 239.043,398.651 238.758 C 399.052 238.425,399.200 237.181,399.200 234.151 C 399.200 231.650,399.359 230.000,399.600 230.000 C 399.863 230.000,400.000 219.733,400.000 200.000 C 400.000 180.267,399.863 170.000,399.600 170.000 C 399.359 170.000,399.200 168.350,399.200 165.849 C 399.200 162.819,399.052 161.575,398.651 161.242 C 398.307 160.957,398.034 159.633,397.920 157.693 C 397.820 155.992,397.537 154.240,397.291 153.800 C 397.045 153.360,396.733 152.310,396.597 151.467 C 396.419 150.353,396.193 149.994,395.776 150.154 C 395.311 150.332,395.200 149.873,395.200 147.775 C 395.200 145.833,395.048 145.117,394.600 144.945 C 394.171 144.780,394.000 144.109,394.000 142.586 C 394.000 141.311,393.779 140.236,393.449 139.906 C 393.146 139.603,392.771 138.780,392.617 138.077 C 392.462 137.372,392.082 136.800,391.768 136.800 C 391.356 136.800,391.200 136.272,391.200 134.876 C 391.200 133.804,390.940 132.609,390.613 132.176 C 390.290 131.749,390.020 130.738,390.013 129.929 C 390.006 129.119,389.739 128.196,389.420 127.877 C 389.101 127.558,388.716 126.780,388.566 126.148 C 388.416 125.517,388.065 124.730,387.788 124.400 C 387.510 124.070,387.208 123.440,387.118 123.000 C 387.027 122.560,386.738 122.245,386.476 122.300 C 386.164 122.365,386.000 121.787,386.000 120.624 C 386.000 119.647,385.809 118.729,385.575 118.585 C 385.114 118.300,384.231 116.386,384.335 115.900 C 384.371 115.735,384.179 115.645,383.909 115.700 C 383.640 115.755,383.353 115.350,383.273 114.800 C 383.193 114.250,382.888 113.530,382.595 113.200 C 382.302 112.870,382.003 111.970,381.931 111.200 C 381.847 110.297,381.612 109.839,381.270 109.910 C 380.979 109.970,380.855 109.835,380.994 109.610 C 381.133 109.384,381.062 109.200,380.836 109.200 C 380.610 109.200,380.525 108.941,380.646 108.624 C 380.771 108.298,380.506 107.823,380.033 107.528 C 379.575 107.242,379.200 106.750,379.200 106.435 C 379.200 106.121,378.920 105.554,378.579 105.176 C 378.237 104.799,377.929 104.122,377.895 103.672 C 377.862 103.223,377.646 102.888,377.417 102.928 C 377.188 102.967,377.045 102.775,377.100 102.500 C 377.155 102.225,377.040 102.000,376.844 102.000 C 376.649 102.000,376.497 101.775,376.507 101.500 C 376.557 100.163,376.348 99.600,375.800 99.600 C 375.470 99.600,375.200 99.253,375.200 98.829 C 375.200 98.404,374.930 97.787,374.600 97.457 C 374.270 97.127,374.000 96.595,374.000 96.275 C 374.000 95.955,373.621 95.594,373.158 95.473 C 372.684 95.349,372.398 95.023,372.504 94.726 C 372.757 94.018,372.056 92.718,371.580 93.012 C 371.371 93.142,371.200 92.776,371.200 92.200 C 371.200 91.624,371.039 91.252,370.842 91.374 C 370.494 91.589,369.997 90.785,369.765 89.630 C 369.702 89.316,369.365 88.900,369.017 88.705 C 368.668 88.510,368.471 88.209,368.578 88.036 C 368.685 87.863,368.419 87.341,367.986 86.877 C 367.554 86.413,367.200 85.852,367.200 85.631 C 367.200 85.409,366.835 85.033,366.389 84.794 C 365.943 84.555,365.676 84.201,365.795 84.007 C 365.915 83.813,365.695 83.417,365.307 83.127 C 364.918 82.837,364.540 82.330,364.468 82.000 C 364.395 81.670,364.080 81.256,363.768 81.080 C 363.455 80.904,363.199 80.544,363.198 80.280 C 363.197 80.016,362.567 79.115,361.798 78.278 C 361.029 77.440,360.400 76.495,360.400 76.178 C 360.400 75.860,360.130 75.600,359.800 75.600 C 359.470 75.600,359.200 75.324,359.200 74.987 C 359.200 74.651,358.930 74.271,358.600 74.145 C 358.270 74.018,358.000 73.754,358.000 73.557 C 358.000 73.361,357.325 72.493,356.500 71.629 C 354.498 69.531,354.000 68.903,354.000 68.473 C 354.000 68.274,353.561 67.782,353.024 67.379 C 352.487 66.976,352.138 66.501,352.248 66.323 C 352.357 66.145,352.167 66.000,351.824 66.000 C 351.481 66.000,351.200 65.730,351.200 65.400 C 351.200 65.070,350.930 64.800,350.600 64.800 C 350.270 64.800,350.000 64.646,350.000 64.458 C 350.000 63.955,348.107 62.000,347.619 62.000 C 347.389 62.000,347.200 61.730,347.200 61.400 C 347.200 61.070,346.930 60.800,346.600 60.800 C 346.270 60.800,346.000 60.524,346.000 60.187 C 346.000 59.851,345.737 59.474,345.415 59.350 C 345.094 59.227,344.720 58.777,344.584 58.350 C 344.267 57.352,342.648 55.733,341.650 55.416 C 341.223 55.280,340.773 54.906,340.650 54.585 C 340.526 54.263,340.149 54.000,339.813 54.000 C 339.476 54.000,339.200 53.730,339.200 53.400 C 339.200 53.070,338.930 52.800,338.600 52.800 C 338.270 52.800,338.000 52.611,338.000 52.381 C 338.000 51.893,336.045 50.000,335.542 50.000 C 335.354 50.000,335.200 49.730,335.200 49.400 C 335.200 49.070,334.930 48.800,334.600 48.800 C 334.270 48.800,334.000 48.519,334.000 48.176 C 334.000 47.833,333.855 47.643,333.677 47.752 C 333.499 47.862,333.024 47.513,332.621 46.976 C 332.218 46.439,331.726 46.000,331.527 46.000 C 331.099 46.000,330.470 45.503,328.405 43.533 C 327.559 42.727,326.776 42.157,326.666 42.268 C 326.555 42.378,326.264 42.093,326.018 41.634 C 325.773 41.175,325.308 40.800,324.986 40.800 C 324.664 40.800,324.400 40.530,324.400 40.200 C 324.400 39.870,324.140 39.600,323.822 39.600 C 323.505 39.600,322.560 38.971,321.722 38.202 C 320.885 37.433,319.984 36.803,319.720 36.802 C 319.456 36.801,319.096 36.545,318.920 36.232 C 318.744 35.920,318.330 35.605,318.000 35.532 C 317.670 35.460,317.163 35.082,316.873 34.693 C 316.583 34.305,316.187 34.085,315.993 34.205 C 315.799 34.324,315.445 34.057,315.206 33.611 C 314.967 33.165,314.508 32.800,314.186 32.800 C 313.864 32.800,313.600 32.620,313.600 32.400 C 313.600 32.180,313.330 32.000,313.000 32.000 C 312.670 32.000,312.400 31.809,312.400 31.576 C 312.400 31.343,312.231 31.257,312.025 31.385 C 311.818 31.512,311.490 31.332,311.295 30.983 C 311.100 30.635,310.684 30.298,310.370 30.235 C 309.215 30.003,308.411 29.506,308.626 29.158 C 308.748 28.961,308.376 28.800,307.800 28.800 C 307.224 28.800,306.858 28.629,306.988 28.420 C 307.282 27.944,305.982 27.243,305.274 27.496 C 304.977 27.602,304.651 27.316,304.527 26.842 C 304.401 26.362,303.983 26.000,303.553 26.000 C 303.139 26.000,302.800 25.839,302.800 25.643 C 302.800 25.446,302.505 25.172,302.143 25.034 C 301.569 24.813,301.557 24.868,302.043 25.472 C 302.494 26.031,302.392 26.013,301.513 25.381 C 300.914 24.952,300.419 24.375,300.413 24.100 C 300.401 23.641,299.783 23.445,298.500 23.493 C 298.225 23.503,298.000 23.351,298.000 23.156 C 298.000 22.960,297.775 22.845,297.500 22.900 C 297.225 22.955,297.045 22.775,297.100 22.500 C 297.155 22.225,297.065 22.021,296.900 22.047 C 295.957 22.196,295.239 21.848,293.843 20.566 C 292.843 19.647,292.021 19.206,291.543 19.331 C 291.134 19.438,290.800 19.351,290.800 19.139 C 290.800 18.927,290.616 18.867,290.390 19.006 C 290.165 19.145,290.030 19.021,290.090 18.730 C 290.161 18.388,289.703 18.153,288.800 18.069 C 288.030 17.997,287.130 17.698,286.800 17.405 C 286.470 17.112,285.750 16.807,285.200 16.727 C 284.650 16.647,284.245 16.360,284.300 16.091 C 284.355 15.821,284.265 15.629,284.100 15.665 C 283.614 15.769,281.700 14.886,281.415 14.425 C 281.271 14.191,280.353 14.000,279.376 14.000 C 278.213 14.000,277.635 13.836,277.700 13.524 C 277.755 13.262,277.440 12.973,277.000 12.882 C 276.560 12.792,275.930 12.490,275.600 12.212 C 275.270 11.935,274.483 11.584,273.852 11.434 C 273.220 11.284,272.442 10.899,272.123 10.580 C 271.804 10.261,270.881 9.994,270.071 9.987 C 269.262 9.980,268.251 9.710,267.824 9.387 C 267.391 9.060,266.196 8.800,265.124 8.800 C 263.728 8.800,263.200 8.644,263.200 8.232 C 263.200 7.918,262.628 7.538,261.923 7.383 C 261.220 7.229,260.397 6.854,260.094 6.551 C 259.764 6.221,258.689 6.000,257.414 6.000 C 255.891 6.000,255.220 5.829,255.055 5.400 C 254.883 4.952,254.167 4.800,252.225 4.800 C 250.156 4.800,249.669 4.685,249.841 4.238 C 250.063 3.660,247.791 2.876,247.304 3.363 C 247.172 3.494,246.733 3.301,246.328 2.934 C 245.816 2.472,244.613 2.211,242.402 2.083 C 240.384 1.966,239.046 1.696,238.758 1.349 C 238.425 0.948,237.181 0.800,234.151 0.800 C 231.650 0.800,230.000 0.641,230.000 0.400 C 230.000 0.137,219.733 0.000,200.000 0.000 C 180.267 0.000,170.000 0.137,170.000 0.400 " stroke="none" fill="#4463eb" fill-rule="evenodd"></path><path id="path3" d="M205.044 24.329 C 204.925 24.521,203.391 24.790,201.635 24.926 C 199.879 25.061,197.781 25.448,196.972 25.786 C 196.164 26.124,195.080 26.400,194.565 26.400 C 194.049 26.400,193.036 26.655,192.314 26.967 C 191.591 27.278,189.740 27.918,188.200 28.389 C 184.863 29.409,182.423 30.379,181.600 31.011 C 181.270 31.265,179.868 31.885,178.485 32.390 C 177.102 32.896,175.289 33.802,174.457 34.404 C 173.625 35.007,172.512 35.638,171.982 35.806 C 170.951 36.133,165.089 40.000,164.867 40.500 C 164.793 40.665,164.514 40.800,164.247 40.800 C 163.979 40.800,162.619 41.655,161.225 42.700 C 159.830 43.745,158.391 44.780,158.026 45.000 C 157.662 45.220,156.305 46.435,155.011 47.700 C 153.717 48.965,152.480 50.000,152.263 50.000 C 151.677 50.000,141.200 60.477,141.200 61.062 C 141.200 61.743,138.381 64.435,137.948 64.168 C 137.333 63.788,137.541 56.322,138.202 55.054 C 138.531 54.424,138.800 53.521,138.800 53.048 C 138.800 52.575,139.136 51.561,139.547 50.794 C 140.808 48.440,140.983 46.926,140.052 46.428 C 138.932 45.829,139.045 45.777,136.425 48.100 C 135.122 49.255,133.581 50.560,132.999 51.000 C 132.418 51.440,131.820 52.095,131.671 52.455 C 131.522 52.815,130.320 54.288,129.000 55.728 C 126.221 58.760,124.028 61.608,122.939 63.600 C 122.518 64.370,121.711 65.720,121.145 66.600 C 118.501 70.712,115.531 77.280,113.730 83.000 C 113.176 84.760,112.470 86.767,112.161 87.460 C 111.852 88.154,111.600 89.063,111.600 89.480 C 111.600 89.898,111.433 90.411,111.229 90.620 C 110.876 90.982,109.871 95.510,109.191 99.800 C 109.017 100.900,108.588 103.150,108.238 104.800 C 107.887 106.450,107.601 108.914,107.600 110.276 C 107.600 111.638,107.449 112.846,107.264 112.961 C 106.949 113.155,106.222 125.614,106.292 129.600 C 106.395 135.482,106.959 144.051,107.254 144.233 C 107.444 144.351,107.600 145.202,107.599 146.124 C 107.598 149.955,109.920 158.144,111.817 161.000 C 112.547 162.100,113.264 163.482,113.409 164.071 C 113.712 165.304,114.810 165.956,114.783 164.887 C 114.773 164.509,114.327 163.480,113.792 162.600 C 109.830 156.086,108.507 150.680,107.576 137.200 C 107.022 129.183,107.022 129.454,107.561 120.800 C 108.297 108.983,108.441 107.422,108.831 107.020 C 109.034 106.811,109.200 106.091,109.200 105.420 C 109.201 104.749,109.483 102.850,109.827 101.200 C 110.172 99.550,110.611 97.300,110.802 96.200 C 110.994 95.100,111.541 92.940,112.018 91.400 C 112.495 89.860,113.125 87.790,113.417 86.800 C 114.032 84.718,116.215 78.576,116.757 77.400 C 119.702 71.017,121.027 68.386,121.832 67.327 C 122.364 66.626,122.800 65.890,122.800 65.689 C 122.800 65.037,126.870 59.454,128.989 57.200 C 130.126 55.990,131.404 54.460,131.829 53.800 C 132.627 52.557,134.335 50.805,134.758 50.794 C 134.891 50.790,135.899 49.980,136.997 48.994 C 139.847 46.434,140.421 46.851,138.764 50.275 C 137.444 53.001,136.830 56.271,136.814 60.651 C 136.794 66.328,137.971 66.906,141.050 62.733 C 143.368 59.590,156.832 46.706,159.132 45.429 C 159.499 45.225,159.980 44.859,160.200 44.616 C 160.420 44.373,161.590 43.529,162.800 42.741 C 164.010 41.953,166.050 40.609,167.334 39.754 C 170.957 37.342,171.683 36.896,173.400 36.035 C 174.280 35.593,175.630 34.879,176.400 34.449 C 178.941 33.028,183.755 30.923,186.600 29.988 C 188.140 29.481,189.580 28.938,189.800 28.780 C 190.020 28.622,190.824 28.359,191.587 28.195 C 192.350 28.032,193.250 27.754,193.587 27.579 C 194.236 27.241,199.382 26.158,203.400 25.514 C 207.225 24.902,213.987 24.692,214.561 25.167 C 214.947 25.488,214.064 26.605,210.824 29.894 C 203.051 37.781,199.752 47.239,205.686 44.620 C 209.623 42.883,216.217 41.246,223.478 40.203 C 225.500 39.913,227.390 39.524,227.678 39.340 C 229.695 38.046,252.441 38.188,255.663 39.514 C 256.247 39.755,257.867 40.066,259.263 40.205 C 260.658 40.344,262.160 40.615,262.600 40.806 C 263.040 40.997,264.210 41.327,265.200 41.540 C 269.386 42.439,278.158 46.197,280.133 47.938 C 280.935 48.644,279.534 50.400,278.169 50.400 C 276.411 50.400,264.010 56.223,259.758 59.046 C 256.576 61.158,257.250 61.487,266.600 62.392 C 272.274 62.940,280.209 64.388,281.474 65.105 C 281.954 65.377,282.696 65.600,283.123 65.600 C 283.825 65.600,285.492 66.227,289.060 67.833 C 289.754 68.145,290.564 68.408,290.860 68.417 C 291.157 68.427,292.061 68.832,292.869 69.317 C 293.677 69.803,295.657 70.993,297.269 71.962 C 298.881 72.931,300.958 74.413,301.883 75.255 L 303.567 76.786 301.683 77.879 C 300.648 78.481,299.562 79.204,299.271 79.486 C 298.981 79.769,298.589 80.000,298.401 80.000 C 297.980 80.000,293.200 84.815,293.200 85.239 C 293.200 85.406,292.935 85.807,292.612 86.131 C 291.867 86.875,290.835 89.613,290.323 92.200 C 290.106 93.300,289.744 94.849,289.519 95.642 C 289.294 96.435,289.203 97.875,289.316 98.842 C 289.645 101.646,290.773 106.937,291.205 107.695 C 291.422 108.077,291.600 108.835,291.600 109.379 C 291.600 109.924,291.960 111.913,292.400 113.800 C 292.840 115.687,293.200 117.776,293.200 118.442 C 293.200 119.108,293.375 119.979,293.589 120.379 C 294.276 121.663,294.819 138.058,294.424 145.600 C 293.979 154.100,293.059 157.175,288.601 165.079 L 287.653 166.759 288.627 166.315 C 289.162 166.071,289.600 165.551,289.600 165.159 C 289.600 164.768,289.785 164.333,290.011 164.193 C 290.502 163.889,293.600 157.523,293.600 156.816 C 293.600 156.544,293.857 155.754,294.171 155.060 C 296.005 151.011,296.167 121.688,294.366 119.820 C 294.165 119.611,294.000 118.891,294.000 118.220 C 293.999 117.549,293.717 115.650,293.373 114.000 C 293.028 112.350,292.587 110.010,292.392 108.800 C 292.197 107.590,291.759 105.812,291.418 104.850 C 291.078 103.887,290.800 102.413,290.800 101.573 C 290.800 100.734,290.620 99.936,290.400 99.800 C 290.180 99.664,290.000 98.854,290.000 98.000 C 290.000 97.146,290.180 96.336,290.400 96.200 C 290.620 96.064,290.800 95.056,290.800 93.960 C 290.800 92.758,291.117 91.347,291.600 90.400 C 292.040 89.538,292.400 88.570,292.400 88.250 C 292.400 86.722,299.114 80.128,302.105 78.718 C 304.450 77.612,304.726 76.601,303.100 75.074 C 301.607 73.671,296.959 70.400,296.459 70.400 C 296.285 70.400,295.435 69.862,294.571 69.205 C 293.707 68.547,292.328 67.895,291.508 67.755 C 290.687 67.615,289.810 67.253,289.559 66.950 C 289.307 66.648,288.758 66.400,288.337 66.400 C 287.916 66.400,287.173 66.150,286.686 65.844 C 285.856 65.323,283.229 64.535,277.306 63.033 C 275.934 62.685,274.110 62.400,273.252 62.400 C 272.394 62.400,271.176 62.131,270.546 61.802 C 269.897 61.464,268.342 61.204,266.959 61.202 C 262.001 61.197,259.618 60.781,260.358 60.048 C 261.764 58.656,271.125 53.600,272.295 53.600 C 272.574 53.600,273.475 53.240,274.296 52.800 C 275.116 52.360,276.095 52.000,276.470 52.000 C 276.846 52.000,277.264 51.820,277.400 51.600 C 277.536 51.380,277.994 51.200,278.417 51.200 C 279.903 51.200,281.833 49.030,281.330 47.925 C 280.848 46.868,274.151 43.286,270.600 42.186 C 264.325 40.243,261.844 39.600,260.618 39.600 C 259.864 39.600,259.155 39.450,259.042 39.267 C 258.815 38.900,253.766 38.115,249.400 37.768 C 241.693 37.155,223.635 38.172,222.965 39.257 C 222.848 39.446,222.178 39.600,221.476 39.599 C 219.251 39.599,209.077 42.149,206.140 43.444 C 203.256 44.716,203.075 43.696,205.312 38.800 C 207.032 35.036,212.690 28.338,215.324 26.948 C 216.200 26.485,216.421 26.116,216.324 25.277 L 216.200 24.200 210.730 24.089 C 207.722 24.028,205.163 24.136,205.044 24.329 M198.300 93.899 C 200.995 93.968,205.405 93.968,208.100 93.899 C 210.795 93.830,208.590 93.773,203.200 93.773 C 197.810 93.773,195.605 93.830,198.300 93.899 M139.178 111.900 L 137.800 113.400 139.300 112.022 C 140.125 111.263,140.800 110.588,140.800 110.522 C 140.800 110.216,140.462 110.504,139.178 111.900 M131.324 127.800 C 131.326 129.120,131.401 129.612,131.490 128.893 C 131.579 128.174,131.577 127.094,131.486 126.493 C 131.395 125.892,131.322 126.480,131.324 127.800 M138.893 148.400 C 138.893 149.170,138.975 149.485,139.076 149.100 C 139.176 148.715,139.176 148.085,139.076 147.700 C 138.975 147.315,138.893 147.630,138.893 148.400 M274.928 178.400 C 274.928 179.830,275.001 180.415,275.089 179.700 C 275.178 178.985,275.178 177.815,275.089 177.100 C 275.001 176.385,274.928 176.970,274.928 178.400 M124.909 183.200 C 124.909 184.190,124.987 184.595,125.082 184.100 C 125.178 183.605,125.178 182.795,125.082 182.300 C 124.987 181.805,124.909 182.210,124.909 183.200 M275.728 186.800 C 275.728 188.230,275.801 188.815,275.889 188.100 C 275.978 187.385,275.978 186.215,275.889 185.500 C 275.801 184.785,275.728 185.370,275.728 186.800 M267.674 220.900 C 264.276 228.645,259.258 238.692,257.970 240.329 C 257.547 240.867,257.200 241.474,257.200 241.677 C 257.200 241.880,256.423 243.161,255.472 244.523 C 254.522 245.885,253.257 247.835,252.660 248.856 L 251.576 250.711 251.449 262.056 C 251.330 272.693,250.946 277.886,250.036 281.200 C 247.301 291.159,244.182 298.214,240.226 303.392 C 236.618 308.112,234.265 310.848,232.532 312.337 C 231.469 313.250,229.430 314.997,228.000 316.220 C 223.492 320.074,215.989 324.931,208.200 329.038 C 200.291 333.209,200.962 332.955,199.499 332.333 C 196.835 331.201,186.880 324.720,183.048 321.624 C 181.534 320.401,179.727 318.950,179.032 318.400 C 163.944 306.456,156.602 290.735,156.037 269.162 C 155.804 260.279,155.783 260.102,154.800 258.898 C 150.559 253.704,149.074 251.763,146.985 248.692 C 145.673 246.762,144.192 244.433,143.693 243.515 C 143.194 242.598,142.545 241.567,142.251 241.224 C 141.958 240.881,141.447 240.060,141.117 239.400 C 140.787 238.740,139.497 236.318,138.252 234.018 C 137.006 231.718,135.421 228.388,134.729 226.618 C 133.232 222.789,132.884 222.329,132.259 223.345 C 131.604 224.409,129.603 226.400,129.188 226.400 C 128.677 226.400,121.200 233.824,121.200 234.332 C 121.200 234.568,120.597 235.355,119.860 236.081 C 118.659 237.262,114.400 243.340,114.400 243.871 C 114.400 243.988,113.862 244.881,113.204 245.856 C 112.546 246.831,111.892 248.117,111.749 248.714 C 111.606 249.311,111.350 249.980,111.180 250.200 C 110.721 250.794,109.203 254.907,109.187 255.600 C 109.179 255.930,108.825 256.920,108.400 257.800 C 107.975 258.680,107.621 260.154,107.614 261.076 C 107.606 261.998,107.446 262.848,107.259 262.964 C 106.007 263.737,106.001 284.659,107.252 285.432 C 107.443 285.550,107.600 286.296,107.600 287.088 C 107.600 287.881,107.897 289.471,108.259 290.622 C 109.170 293.511,109.211 293.467,102.547 296.764 C 99.276 298.382,95.669 300.312,94.532 301.053 C 93.395 301.794,92.358 302.400,92.228 302.400 C 92.098 302.400,91.095 303.030,90.000 303.800 C 88.905 304.570,87.918 305.200,87.808 305.200 C 87.571 305.200,83.891 307.972,83.600 308.370 C 83.490 308.520,82.604 309.052,81.632 309.551 C 79.952 310.413,76.668 312.819,75.793 313.828 C 75.570 314.086,74.749 314.730,73.970 315.259 C 71.989 316.603,68.000 320.477,68.000 321.057 C 68.000 321.322,67.432 322.106,66.738 322.800 C 64.221 325.318,60.386 331.769,57.525 338.300 C 57.019 339.455,56.398 340.400,56.145 340.400 C 55.892 340.400,55.582 340.670,55.455 341.000 C 55.329 341.330,55.410 341.600,55.636 341.600 C 55.862 341.600,55.944 341.768,55.817 341.972 C 55.691 342.177,55.798 342.475,56.055 342.634 C 56.348 342.815,56.416 342.750,56.238 342.462 C 56.081 342.208,56.143 342.000,56.376 342.000 C 56.609 342.000,56.800 341.762,56.800 341.472 C 56.800 341.182,57.250 340.553,57.800 340.075 C 58.350 339.597,58.800 338.861,58.800 338.439 C 58.800 337.598,62.882 329.414,63.817 328.381 C 64.138 328.027,64.400 327.526,64.400 327.269 C 64.400 327.011,64.575 326.800,64.790 326.800 C 65.004 326.800,65.444 326.289,65.767 325.664 C 66.090 325.039,66.812 324.094,67.370 323.564 C 67.929 323.034,68.389 322.405,68.393 322.168 C 68.412 320.996,78.129 312.772,82.500 310.229 C 83.545 309.621,84.400 308.982,84.400 308.809 C 84.400 308.635,84.715 308.387,85.100 308.258 C 85.485 308.129,86.790 307.298,88.000 306.411 C 89.210 305.525,91.595 303.985,93.300 302.989 C 95.005 301.993,96.400 301.003,96.400 300.789 C 96.400 300.575,96.658 300.400,96.973 300.400 C 97.288 300.400,100.258 299.039,103.573 297.375 L 109.600 294.349 109.600 292.264 C 109.600 291.116,109.346 289.816,109.036 289.373 C 107.974 287.857,106.714 269.946,107.547 268.217 C 107.764 267.768,108.057 265.793,108.197 263.829 C 108.338 261.864,108.711 259.758,109.027 259.148 C 109.342 258.539,109.601 257.716,109.602 257.320 C 109.604 256.924,109.874 256.084,110.202 255.454 C 110.531 254.824,110.800 254.097,110.800 253.839 C 110.800 253.581,111.160 252.663,111.600 251.800 C 112.040 250.937,112.400 250.013,112.400 249.747 C 112.400 249.086,116.173 242.602,117.623 240.771 C 118.270 239.953,118.800 239.108,118.800 238.891 C 118.800 238.050,132.177 224.400,133.001 224.400 C 133.074 224.400,133.449 225.255,133.835 226.300 C 134.220 227.345,134.775 228.484,135.068 228.831 C 135.361 229.179,135.599 229.629,135.597 229.831 C 135.593 230.252,138.495 235.995,139.624 237.800 C 140.037 238.460,140.650 239.540,140.986 240.200 C 141.323 240.860,141.956 241.940,142.393 242.600 C 142.830 243.260,143.366 244.205,143.584 244.700 C 143.802 245.195,144.165 245.600,144.390 245.600 C 144.616 245.600,144.800 245.834,144.800 246.119 C 144.800 246.405,145.475 247.589,146.300 248.752 C 149.424 253.153,151.754 256.247,152.963 257.600 C 155.538 260.481,155.597 260.744,155.634 269.662 C 155.652 274.138,155.824 278.790,156.015 280.000 C 156.794 284.928,157.215 286.729,158.210 289.400 C 158.784 290.940,159.400 292.662,159.578 293.227 C 159.757 293.792,160.093 294.602,160.326 295.027 C 160.559 295.452,161.166 296.697,161.675 297.794 C 162.473 299.514,163.693 301.565,165.695 304.553 C 168.549 308.813,174.757 315.562,178.983 319.000 C 180.064 319.880,181.497 321.096,182.166 321.702 C 182.835 322.308,183.702 322.905,184.091 323.029 C 184.481 323.153,184.800 323.401,184.800 323.580 C 184.800 323.759,186.015 324.688,187.500 325.644 C 188.985 326.600,190.290 327.496,190.400 327.635 C 190.576 327.856,196.000 331.121,197.600 331.969 C 200.940 333.737,200.609 333.686,202.474 332.729 C 203.423 332.242,204.290 331.744,204.400 331.622 C 204.510 331.500,206.040 330.697,207.800 329.837 C 211.386 328.085,216.833 324.919,219.696 322.922 C 220.739 322.195,221.708 321.600,221.851 321.600 C 222.101 321.600,227.553 317.357,230.376 314.966 C 233.171 312.598,236.400 309.468,236.400 309.126 C 236.400 308.932,236.923 308.262,237.561 307.638 C 238.892 306.337,242.178 301.884,242.902 300.400 C 243.171 299.850,243.573 299.207,243.795 298.971 C 244.018 298.734,244.537 297.834,244.949 296.971 C 245.361 296.107,245.946 294.890,246.249 294.268 C 246.552 293.645,246.800 292.944,246.800 292.711 C 246.800 292.478,247.135 291.548,247.544 290.644 C 248.920 287.606,250.149 283.523,250.807 279.800 C 251.001 278.700,251.380 276.810,251.648 275.600 C 251.953 274.226,252.180 269.004,252.252 261.687 C 252.351 251.783,252.464 249.879,252.984 249.359 C 253.323 249.020,253.600 248.589,253.600 248.400 C 253.600 248.211,253.825 247.819,254.100 247.529 C 254.690 246.905,257.600 242.496,257.600 242.226 C 257.600 242.124,258.119 241.266,258.753 240.320 C 260.000 238.459,266.633 225.015,267.852 221.876 C 268.748 219.571,269.761 219.529,272.540 221.683 C 274.564 223.251,282.800 231.503,282.800 231.962 C 282.800 232.143,283.215 232.720,283.722 233.245 C 284.625 234.181,287.622 238.625,288.952 241.000 C 289.322 241.660,289.967 242.740,290.386 243.400 C 291.419 245.027,292.800 247.774,292.800 248.200 C 292.800 248.391,293.128 249.279,293.529 250.174 C 294.909 253.254,295.917 256.398,297.321 262.000 C 298.951 268.507,298.304 286.586,296.369 288.580 C 296.166 288.789,295.999 289.239,295.998 289.580 C 295.997 289.921,295.378 291.404,294.623 292.875 L 293.251 295.550 297.725 298.189 C 303.606 301.657,303.459 301.568,306.000 303.183 C 307.210 303.951,309.100 305.313,310.200 306.208 C 311.300 307.103,313.190 308.507,314.400 309.328 C 315.610 310.148,317.410 311.415,318.400 312.144 C 320.438 313.643,330.400 323.491,330.400 324.007 C 330.400 324.192,330.625 324.581,330.900 324.871 C 331.698 325.715,335.306 331.266,336.054 332.800 C 337.074 334.893,339.386 340.020,339.978 341.500 C 340.263 342.215,340.642 342.800,340.820 342.800 C 340.998 342.800,341.434 343.091,341.790 343.448 C 342.147 343.804,342.559 343.974,342.707 343.826 C 342.856 343.678,342.802 343.431,342.588 343.278 C 341.839 342.742,340.433 340.469,340.151 339.340 C 339.774 337.834,335.921 330.300,334.697 328.678 C 334.167 327.975,333.212 326.504,332.575 325.409 C 330.933 322.585,317.339 309.200,316.113 309.200 C 315.898 309.200,315.333 308.885,314.858 308.500 C 314.382 308.115,313.320 307.298,312.497 306.684 C 311.674 306.070,310.100 304.877,309.000 304.033 C 306.819 302.359,300.274 298.400,299.688 298.400 C 299.488 298.400,299.021 298.065,298.650 297.655 C 298.280 297.246,297.262 296.589,296.388 296.195 C 294.469 295.329,294.479 295.557,296.200 291.882 C 296.970 290.238,297.600 288.629,297.600 288.308 C 297.600 287.986,297.908 287.110,298.285 286.361 C 299.115 284.713,299.544 268.734,298.874 264.400 C 298.426 261.504,297.368 257.327,296.844 256.387 C 296.656 256.050,296.366 255.156,296.200 254.400 C 296.034 253.644,295.762 252.750,295.595 252.413 C 295.428 252.076,294.889 250.810,294.398 249.600 C 292.929 245.984,291.921 243.891,290.835 242.200 C 290.269 241.320,289.625 240.227,289.403 239.770 C 286.206 233.188,272.356 218.800,269.218 218.800 C 268.850 218.800,268.218 219.660,267.674 220.900 M164.826 337.840 L 163.590 338.879 163.605 368.822 C 163.613 385.291,163.750 398.846,163.910 398.944 C 164.069 399.042,164.182 385.713,164.160 369.322 L 164.120 339.521 165.160 338.556 C 166.616 337.205,167.374 337.055,168.953 337.804 C 171.285 338.911,171.230 338.086,171.110 369.908 C 171.005 397.889,171.151 401.951,172.099 397.390 C 172.862 393.715,172.252 340.715,171.428 339.133 C 170.101 336.588,167.029 335.986,164.826 337.840 M228.883 337.427 C 226.783 338.898,226.797 338.684,226.840 368.949 C 226.862 384.377,227.002 397.437,227.151 397.970 C 227.625 399.668,228.371 399.441,227.972 397.721 C 227.433 395.398,227.499 341.208,228.043 339.648 C 228.936 337.087,231.459 336.579,233.440 338.560 L 234.800 339.920 234.828 369.660 C 234.844 386.425,235.005 399.051,235.197 398.600 C 235.384 398.160,235.507 384.600,235.469 368.467 L 235.400 339.134 234.094 337.967 C 232.592 336.626,230.358 336.394,228.883 337.427 " stroke="none" fill="#394385" fill-rule="evenodd"></path><path id="path4" d="M188.600 94.348 C 186.840 94.499,185.158 94.774,184.863 94.958 C 184.567 95.142,182.587 95.531,180.463 95.822 C 176.553 96.356,171.598 97.322,169.401 97.978 C 168.741 98.176,166.850 98.730,165.200 99.211 C 148.556 104.057,137.685 110.979,133.378 119.472 L 131.800 122.583 131.800 128.272 C 131.800 132.289,131.947 134.107,132.300 134.460 C 132.575 134.735,132.800 135.259,132.800 135.625 C 132.800 136.457,135.572 141.883,136.908 143.668 C 140.920 149.025,140.102 154.359,134.405 159.981 C 130.839 163.499,128.382 167.497,127.753 170.804 C 127.607 171.572,127.328 172.404,127.133 172.654 C 126.715 173.190,125.640 178.635,125.171 182.600 C 124.989 184.140,124.658 186.210,124.437 187.200 C 124.216 188.190,124.027 190.114,124.017 191.476 C 123.988 195.672,122.265 194.261,121.214 189.180 C 120.967 187.981,120.576 186.100,120.346 185.000 C 120.117 183.900,119.789 182.820,119.617 182.600 C 119.445 182.380,119.178 181.041,119.024 179.625 C 118.870 178.209,118.486 176.553,118.172 175.945 C 117.857 175.337,117.600 174.477,117.600 174.034 C 117.600 172.239,114.723 165.200,113.989 165.200 C 113.384 165.200,110.767 166.579,108.606 168.038 C 106.133 169.707,104.079 172.837,103.772 175.407 C 103.641 176.503,103.347 177.895,103.118 178.500 C 102.843 179.230,102.836 179.769,103.099 180.100 C 103.317 180.375,103.619 181.729,103.769 183.109 C 104.472 189.569,112.069 200.330,119.093 204.812 C 121.880 206.591,127.330 209.334,126.992 208.788 C 126.872 208.593,125.025 207.572,122.887 206.517 C 112.860 201.571,103.485 188.398,103.589 179.400 C 103.659 173.419,107.660 167.488,112.243 166.571 C 113.753 166.269,114.053 166.636,115.218 170.200 C 115.721 171.740,116.259 173.180,116.413 173.400 C 116.567 173.620,116.812 174.733,116.957 175.874 C 117.102 177.015,117.485 178.455,117.808 179.074 C 118.131 179.693,118.396 180.852,118.398 181.650 C 118.399 182.447,118.670 183.865,119.000 184.800 C 119.330 185.735,119.601 187.153,119.602 187.950 C 119.604 188.748,119.846 189.862,120.141 190.427 C 120.435 190.991,120.790 191.905,120.929 192.458 C 121.393 194.310,123.012 195.669,124.140 195.155 C 125.303 194.625,125.592 193.473,125.621 189.250 C 125.650 184.854,126.742 177.241,127.750 174.400 C 128.101 173.410,128.391 172.283,128.394 171.895 C 128.397 171.507,128.569 170.877,128.775 170.495 C 129.402 169.335,131.200 165.266,131.200 165.008 C 131.200 164.651,131.868 163.923,135.338 160.497 C 141.258 154.655,142.048 148.079,137.495 142.564 C 135.793 140.503,133.865 136.431,133.391 133.896 C 133.236 133.068,132.950 132.293,132.755 132.172 C 132.281 131.879,132.299 124.177,132.775 123.295 C 132.982 122.913,133.711 121.366,134.395 119.857 C 136.333 115.587,143.412 109.021,148.485 106.789 C 148.988 106.568,150.193 105.940,151.163 105.393 C 152.133 104.847,153.123 104.394,153.363 104.386 C 153.603 104.379,154.520 104.025,155.400 103.600 C 156.280 103.175,157.279 102.821,157.620 102.814 C 157.961 102.806,158.411 102.646,158.620 102.458 C 158.829 102.270,160.620 101.628,162.600 101.032 C 164.580 100.435,166.582 99.794,167.048 99.606 C 167.514 99.418,168.774 99.137,169.848 98.982 C 170.922 98.826,171.980 98.572,172.200 98.417 C 172.420 98.262,174.130 97.901,176.000 97.615 C 177.870 97.329,179.580 96.956,179.800 96.786 C 180.020 96.615,181.280 96.387,182.600 96.278 C 183.920 96.169,186.530 95.844,188.400 95.555 C 193.143 94.822,213.555 94.812,217.600 95.541 C 219.250 95.838,221.680 96.227,223.000 96.406 C 225.970 96.807,231.127 97.921,232.200 98.393 C 232.640 98.587,233.851 98.858,234.891 98.996 C 235.931 99.133,236.876 99.400,236.993 99.588 C 237.109 99.776,237.968 100.047,238.902 100.190 C 239.836 100.333,241.140 100.692,241.800 100.988 C 242.460 101.284,243.720 101.797,244.600 102.127 C 267.205 110.614,278.902 126.048,272.242 138.600 C 271.891 139.260,271.604 140.059,271.602 140.375 C 271.601 140.692,270.724 142.762,269.654 144.975 C 266.856 150.759,266.664 151.401,266.497 155.483 C 266.346 159.159,266.441 159.602,268.136 163.152 C 268.386 163.676,269.226 164.846,270.001 165.752 C 270.777 166.659,271.746 168.120,272.155 169.000 C 273.584 172.076,274.533 181.407,274.281 189.883 C 274.040 197.965,274.529 198.526,278.566 194.800 C 280.669 192.859,281.600 190.866,281.600 188.305 C 281.600 187.135,281.848 185.823,282.151 185.389 C 282.454 184.955,282.834 183.096,282.996 181.258 C 283.158 179.420,283.539 177.440,283.843 176.858 C 284.147 176.276,284.407 175.440,284.421 175.000 C 284.435 174.560,284.883 173.390,285.415 172.400 C 285.948 171.410,286.590 170.149,286.843 169.597 C 289.906 162.907,298.858 172.827,297.201 181.076 C 294.883 192.620,287.837 201.487,276.400 207.251 C 274.310 208.304,272.818 209.173,273.085 209.183 C 273.656 209.203,280.293 205.806,282.600 204.313 C 284.655 202.983,290.758 196.708,292.142 194.502 C 295.051 189.865,297.199 185.048,297.200 183.160 C 297.200 182.588,297.405 181.532,297.655 180.813 C 299.429 175.726,291.747 164.239,288.148 166.597 C 285.937 168.046,282.400 175.235,282.400 178.280 C 282.400 178.800,282.154 179.814,281.854 180.532 C 281.554 181.251,281.178 183.401,281.019 185.310 C 280.666 189.550,279.864 191.769,277.901 193.941 C 275.734 196.339,274.592 196.242,275.055 193.700 C 276.661 184.864,274.268 168.736,270.795 165.000 C 269.514 163.621,268.000 160.905,268.000 159.986 C 268.000 159.642,267.804 159.164,267.565 158.925 C 266.273 157.633,267.698 151.068,270.588 145.000 C 273.094 139.739,273.030 139.905,274.018 136.126 C 276.033 128.416,273.501 120.755,266.699 113.986 C 264.717 112.013,262.920 110.400,262.706 110.400 C 262.491 110.400,261.659 109.888,260.858 109.262 C 258.538 107.451,252.618 104.000,251.831 104.000 C 251.588 104.000,250.761 103.666,249.994 103.258 C 245.529 100.880,231.361 96.647,225.400 95.909 C 223.640 95.692,221.480 95.237,220.600 94.898 C 218.832 94.217,194.922 93.806,188.600 94.348 M267.239 220.079 C 264.437 226.259,263.452 228.365,262.598 230.000 C 262.080 230.990,261.187 232.790,260.613 234.000 C 260.039 235.210,259.396 236.470,259.184 236.800 C 258.972 237.130,258.627 237.795,258.417 238.279 C 258.208 238.762,257.488 239.914,256.818 240.839 C 256.148 241.763,255.600 242.681,255.600 242.877 C 255.600 243.073,255.413 243.451,255.185 243.717 C 250.511 249.153,250.050 251.166,250.021 266.257 C 250.003 275.171,249.911 276.748,249.400 276.945 C 248.979 277.106,248.800 277.762,248.800 279.142 C 248.800 280.223,248.531 281.624,248.202 282.254 C 247.874 282.884,247.604 283.806,247.602 284.301 C 247.601 284.797,247.240 285.875,246.800 286.696 C 246.360 287.516,246.000 288.574,246.000 289.045 C 246.000 289.516,245.730 290.126,245.400 290.400 C 245.034 290.704,244.800 291.580,244.800 292.649 C 244.800 293.612,244.620 294.400,244.400 294.400 C 244.180 294.400,244.000 294.622,244.000 294.894 C 244.000 295.585,241.933 299.600,241.578 299.600 C 241.418 299.600,241.179 300.030,241.047 300.555 C 240.811 301.496,240.045 302.516,237.100 305.811 C 236.275 306.734,235.600 307.667,235.600 307.884 C 235.600 308.367,231.214 312.800,230.736 312.800 C 230.547 312.800,229.347 313.745,228.068 314.900 C 226.789 316.055,225.330 317.270,224.825 317.600 C 224.320 317.930,223.523 318.487,223.054 318.838 C 220.617 320.660,217.964 322.400,217.624 322.400 C 217.413 322.400,217.096 322.625,216.920 322.900 C 216.744 323.176,215.745 323.818,214.700 324.328 C 213.655 324.839,212.800 325.409,212.800 325.596 C 212.800 325.783,212.262 326.055,211.605 326.199 C 210.947 326.343,210.314 326.616,210.197 326.806 C 210.080 326.995,208.953 327.633,207.692 328.225 C 206.431 328.816,204.626 329.817,203.680 330.450 C 201.480 331.921,199.993 331.908,197.802 330.402 C 196.844 329.742,195.642 329.023,195.130 328.803 C 194.177 328.392,192.757 327.558,192.400 327.199 C 192.290 327.088,191.390 326.458,190.400 325.799 C 189.410 325.139,188.420 324.460,188.200 324.288 C 187.980 324.116,186.810 323.270,185.600 322.407 C 184.390 321.544,182.841 320.290,182.157 319.619 C 181.473 318.949,180.738 318.400,180.524 318.400 C 180.063 318.400,171.203 309.770,171.194 309.313 C 171.191 309.141,170.476 308.190,169.605 307.200 C 167.472 304.776,167.347 304.622,167.154 304.182 C 166.653 303.035,165.071 300.800,164.760 300.800 C 164.562 300.800,164.400 300.453,164.400 300.029 C 164.400 299.604,164.130 298.987,163.800 298.657 C 163.470 298.327,163.200 297.874,163.200 297.650 C 163.200 297.161,161.316 293.558,160.779 293.020 C 160.571 292.811,160.400 292.208,160.400 291.680 C 160.400 291.153,160.144 290.154,159.830 289.460 C 158.123 285.682,157.130 278.749,156.979 269.547 C 156.843 261.282,156.541 259.568,154.907 257.780 C 153.399 256.131,148.400 249.713,148.400 249.426 C 148.400 249.300,147.622 248.072,146.671 246.698 C 145.012 244.301,142.825 240.725,141.638 238.468 C 141.329 237.881,140.965 237.310,140.829 237.200 C 140.692 237.090,139.806 235.470,138.860 233.600 C 137.913 231.730,136.988 229.930,136.803 229.600 C 136.136 228.406,134.800 224.838,134.800 224.248 C 134.800 223.916,134.349 223.140,133.797 222.522 L 132.795 221.400 134.023 224.800 C 135.253 228.204,138.476 234.869,140.254 237.685 C 140.774 238.510,141.200 239.343,141.200 239.538 C 141.200 239.733,141.579 240.374,142.042 240.962 C 142.505 241.551,143.270 242.742,143.742 243.608 C 144.214 244.475,145.673 246.762,146.985 248.692 C 149.074 251.763,150.559 253.704,154.800 258.898 C 155.783 260.102,155.804 260.279,156.037 269.162 C 156.602 290.735,163.944 306.456,179.032 318.400 C 179.727 318.950,181.534 320.401,183.048 321.624 C 186.880 324.720,196.835 331.201,199.499 332.333 C 200.962 332.955,200.291 333.209,208.200 329.038 C 215.989 324.931,223.492 320.074,228.000 316.220 C 229.430 314.997,231.469 313.250,232.532 312.337 C 234.265 310.848,236.618 308.112,240.226 303.392 C 244.182 298.214,247.301 291.159,250.036 281.200 C 250.946 277.886,251.330 272.693,251.449 262.056 L 251.576 250.711 252.660 248.856 C 253.257 247.835,254.522 245.885,255.472 244.523 C 256.423 243.161,257.200 241.880,257.200 241.677 C 257.200 241.474,257.547 240.867,257.970 240.329 C 259.236 238.719,263.220 230.764,267.695 220.909 C 268.117 219.980,268.403 218.935,268.331 218.588 C 268.258 218.238,267.772 218.902,267.239 220.079 M165.754 338.086 C 165.119 338.574,164.497 339.117,164.371 339.294 C 163.537 340.469,164.014 399.200,164.857 399.200 C 165.070 399.200,165.052 398.870,164.814 398.426 C 164.228 397.331,164.243 355.117,164.830 354.530 C 165.246 354.114,165.209 352.557,164.575 343.700 C 164.236 338.954,166.338 336.762,169.246 338.833 L 170.415 339.665 170.307 369.433 C 170.248 385.805,170.314 399.200,170.453 399.200 C 171.101 399.200,171.189 395.574,171.195 368.919 C 171.200 338.116,171.256 338.897,168.984 337.819 C 167.296 337.018,167.126 337.032,165.754 338.086 M229.515 337.821 C 228.832 338.192,228.267 338.965,227.992 339.905 C 227.415 341.877,227.614 398.175,228.200 398.760 C 228.467 399.027,228.565 389.279,228.495 369.517 C 228.396 341.681,228.433 339.826,229.095 339.090 C 230.709 337.295,232.272 337.514,233.620 339.726 C 234.446 341.081,234.822 392.549,234.040 397.300 C 233.796 398.778,233.846 399.200,234.263 399.200 C 234.707 399.200,234.800 394.083,234.800 369.560 L 234.800 339.920 233.440 338.560 C 231.954 337.074,231.165 336.925,229.515 337.821 " stroke="none" fill="#a49484" fill-rule="evenodd"></path></g></svg>